<svg xmlns="http://www.w3.org/2000/svg" xmlns:xlink="http://www.w3.org/1999/xlink" width="500" zoomAndPan="magnify" viewBox="0 0 375 374.999991" height="500" preserveAspectRatio="xMidYMid meet" version="1.2"><defs><clipPath id="5f6a915541"><path d="M 20.9375 114.238281 L 353.9375 114.238281 L 353.9375 347.296875 L 20.9375 347.296875 Z M 20.9375 114.238281 "/></clipPath><clipPath id="385dc661f6"><path d="M 107.753906 39.75 L 267.503906 39.75 L 267.503906 122 L 107.753906 122 Z M 107.753906 39.75 "/></clipPath></defs><g id="f6ae187ef6"><rect x="0" width="375" y="0" height="374.999991" style="fill:#ffffff;fill-opacity:1;stroke:none;"/><rect x="0" width="375" y="0" height="374.999991" style="fill:#ffeedc;fill-opacity:1;stroke:none;"/><g clip-rule="nonzero" clip-path="url(#5f6a915541)"><path style="fill:none;stroke-width:10;stroke-linecap:butt;stroke-linejoin:miter;stroke:#241b19;stroke-opacity:1;stroke-miterlimit:4;" d="M 0.000293003 0.000217612 L 444.156537 0.000217612 L 444.156537 310.854361 L 0.000293003 310.854361 Z M 0.000293003 0.000217612 " transform="matrix(0.749736,0,0,0.749736,20.93728,114.238118)"/></g><g clip-rule="nonzero" clip-path="url(#385dc661f6)"><path style=" stroke:none;fill-rule:nonzero;fill:#241b19;fill-opacity:1;" d="M 264.796875 121.945312 C 264.476562 121.945312 264.164062 121.882812 263.867188 121.757812 C 263.570312 121.636719 263.304688 121.460938 263.078125 121.230469 C 262.851562 121.003906 262.675781 120.742188 262.550781 120.441406 C 262.429688 120.144531 262.367188 119.835938 262.367188 119.511719 C 262.367188 78.226562 228.777344 44.640625 187.492188 44.640625 C 146.203125 44.640625 112.617188 78.21875 112.617188 119.503906 C 112.617188 119.828125 112.554688 120.136719 112.433594 120.4375 C 112.308594 120.734375 112.132812 120.996094 111.90625 121.226562 C 111.675781 121.453125 111.414062 121.628906 111.117188 121.753906 C 110.816406 121.875 110.507812 121.9375 110.183594 121.9375 C 109.863281 121.9375 109.550781 121.875 109.253906 121.753906 C 108.957031 121.628906 108.695312 121.453125 108.464844 121.226562 C 108.238281 120.996094 108.0625 120.734375 107.9375 120.4375 C 107.816406 120.136719 107.753906 119.828125 107.753906 119.503906 C 107.753906 75.539062 143.523438 39.769531 187.492188 39.769531 C 231.457031 39.769531 267.230469 75.539062 267.230469 119.503906 C 267.230469 119.828125 267.171875 120.140625 267.046875 120.4375 C 266.925781 120.738281 266.75 121 266.519531 121.230469 C 266.292969 121.457031 266.027344 121.636719 265.730469 121.757812 C 265.433594 121.882812 265.121094 121.945312 264.796875 121.945312 Z M 264.796875 121.945312 "/></g><path style="fill:none;stroke-width:6;stroke-linecap:butt;stroke-linejoin:miter;stroke:#241b19;stroke-opacity:1;stroke-miterlimit:4;" d="M -0.00242265 3.001787 L 56.653831 3.001787 " transform="matrix(0,-0.75,0.75,0,107.74866,157.470839)"/><path style="fill:none;stroke-width:6;stroke-linecap:butt;stroke-linejoin:miter;stroke:#241b19;stroke-opacity:1;stroke-miterlimit:4;" d="M -0.00242272 2.999535 L 56.653831 2.999535 " transform="matrix(0,-0.75,0.75,0,262.742536,158.220839)"/></g></svg>