<svg xmlns="http://www.w3.org/2000/svg" xmlns:xlink="http://www.w3.org/1999/xlink" width="128" zoomAndPan="magnify" viewBox="0 0 96 95.999999" height="128" preserveAspectRatio="xMidYMid meet" version="1.2"><defs><clipPath id="cbb21a313d"><path d="M 30 33 L 83.074219 33 L 83.074219 75.882812 L 30 75.882812 Z M 30 33 "/></clipPath><clipPath id="88c504a46f"><path d="M 12.914062 6.132812 L 64 6.132812 L 64 75.882812 L 12.914062 75.882812 Z M 12.914062 6.132812 "/></clipPath></defs><g id="0222676413"><rect x="0" width="96" y="0" height="95.999999" style="fill:#ffffff;fill-opacity:1;stroke:none;"/><rect x="0" width="96" y="0" height="95.999999" style="fill:#241b19;fill-opacity:1;stroke:none;"/><g clip-rule="nonzero" clip-path="url(#cbb21a313d)"><path style=" stroke:none;fill-rule:nonzero;fill:#ffffff;fill-opacity:1;" d="M 30.265625 53.945312 C 30.265625 48.671875 34.53125 44.382812 39.773438 44.382812 C 42.925781 44.382812 45.855469 45.988281 47.605469 48.539062 C 49.355469 45.988281 52.285156 44.382812 55.4375 44.382812 C 60.679688 44.382812 64.945312 48.671875 64.945312 53.945312 C 64.945312 63.660156 57.046875 69.492188 52.339844 72.101562 C 51.800781 72.402344 51.121094 72.203125 50.820312 71.660156 C 50.523438 71.113281 50.71875 70.429688 51.261719 70.128906 C 55.535156 67.761719 62.707031 62.503906 62.707031 53.945312 C 62.707031 49.910156 59.445312 46.632812 55.4375 46.632812 C 52.449219 46.632812 49.722656 48.523438 48.652344 51.335938 C 48.484375 51.769531 48.070312 52.058594 47.605469 52.058594 C 47.140625 52.058594 46.726562 51.773438 46.5625 51.335938 C 45.492188 48.523438 42.765625 46.632812 39.773438 46.632812 C 35.765625 46.632812 32.503906 49.910156 32.503906 53.945312 C 32.503906 66.476562 47.273438 71.957031 47.421875 72.007812 C 47.445312 72.015625 47.464844 72.023438 47.484375 72.035156 C 49.894531 73.070312 51.785156 73.632812 54.878906 73.632812 C 65.363281 73.632812 73.894531 65.050781 73.894531 54.507812 C 73.894531 43.960938 65.363281 35.382812 54.878906 35.382812 L 42.570312 35.382812 C 41.953125 35.382812 41.453125 34.878906 41.453125 34.257812 C 41.453125 33.636719 41.953125 33.132812 42.570312 33.132812 L 54.878906 33.132812 C 62.316406 33.132812 68.871094 37 72.671875 42.835938 C 73.664062 42.375 74.742188 42.132812 75.851562 42.132812 C 80.015625 42.132812 83.402344 45.539062 83.402344 49.726562 C 83.402344 53.882812 80.0625 57.265625 75.941406 57.3125 C 74.570312 67.777344 65.648438 75.882812 54.878906 75.882812 C 51.433594 75.882812 49.242188 75.234375 46.636719 74.117188 C 45.597656 73.734375 30.265625 67.890625 30.265625 53.945312 Z M 81.164062 49.726562 C 81.164062 46.777344 78.78125 44.382812 75.851562 44.382812 C 75.140625 44.382812 74.449219 44.53125 73.804688 44.804688 C 75.289062 47.71875 76.132812 51.015625 76.132812 54.507812 C 76.132812 54.691406 76.121094 54.871094 76.117188 55.054688 C 78.925781 54.914062 81.164062 52.582031 81.164062 49.726562 Z M 81.164062 49.726562 "/></g><g clip-rule="nonzero" clip-path="url(#88c504a46f)"><path style=" stroke:none;fill-rule:nonzero;fill:#ffffff;fill-opacity:1;" d="M 21.140625 24.972656 C 24.0625 22.398438 27.8125 21.101562 31.179688 21.503906 C 31.960938 21.59375 32.683594 21.1875 32.988281 20.496094 C 34.675781 16.636719 37.167969 13.3125 40.195312 10.878906 C 46.027344 6.183594 56.128906 6.132812 56.554688 6.132812 C 57.171875 6.132812 57.671875 6.636719 57.671875 7.257812 C 57.671875 9.449219 57.351562 11.546875 56.753906 13.515625 C 60.535156 14.261719 63.003906 15.589844 63.117188 15.652344 C 63.609375 15.925781 63.828125 16.519531 63.625 17.046875 C 61.285156 23.171875 55.523438 28.511719 49.292969 30.332031 C 46.882812 31.035156 44.507812 31.394531 42.222656 31.398438 C 41.605469 31.398438 41.105469 30.894531 41.105469 30.273438 C 41.101562 29.652344 41.601562 29.148438 42.21875 29.148438 C 44.292969 29.144531 46.460938 28.816406 48.667969 28.171875 C 53.933594 26.632812 58.824219 22.292969 61.136719 17.199219 C 60.113281 16.757812 58.289062 16.078125 55.976562 15.65625 C 53.054688 22.519531 46.617188 27.363281 38.820312 27.988281 C 39.90625 30.71875 40.109375 33.636719 39.355469 36.21875 C 38.566406 38.933594 36.769531 41.125 34.15625 42.554688 C 31.570312 43.976562 28.160156 45.089844 24.839844 45.53125 C 24.121094 47.417969 24.113281 49.613281 24.113281 51.414062 C 24.113281 57.308594 26.769531 62.71875 31.398438 66.320312 L 33.015625 66.320312 C 33.632812 66.320312 34.136719 66.824219 34.136719 67.445312 C 34.136719 68.066406 33.632812 68.570312 33.015625 68.570312 L 28.589844 68.570312 C 26.121094 68.570312 24.113281 70.589844 24.113281 73.070312 C 24.113281 73.378906 24.363281 73.632812 24.671875 73.632812 L 40.894531 73.632812 C 41.511719 73.632812 42.011719 74.136719 42.011719 74.757812 C 42.011719 75.378906 41.511719 75.882812 40.894531 75.882812 L 24.671875 75.882812 C 23.132812 75.882812 21.875 74.621094 21.875 73.070312 C 21.875 69.527344 24.601562 66.621094 28.054688 66.347656 C 24.148438 62.414062 21.875 57.027344 21.875 51.414062 C 21.875 49.796875 21.882812 47.722656 22.425781 45.726562 C 22.246094 45.734375 22.066406 45.738281 21.886719 45.738281 C 20.046875 45.738281 18.332031 45.476562 16.921875 44.875 C 15.0625 44.089844 13.824219 42.757812 13.34375 41.027344 C 13.082031 40.105469 12.925781 39.453125 12.925781 38.195312 C 12.925781 32.925781 16.875 28.726562 21.140625 24.972656 Z M 17.789062 42.800781 C 21.707031 44.464844 28.78125 42.941406 33.085938 40.582031 C 35.164062 39.441406 36.589844 37.714844 37.210938 35.585938 C 37.945312 33.0625 37.542969 30.105469 36.109375 27.472656 C 35.917969 27.125 35.925781 26.703125 36.128906 26.359375 C 36.328125 26.019531 36.695312 25.808594 37.089844 25.808594 C 44.929688 25.808594 51.472656 21.074219 54.144531 14.214844 C 54.167969 14.058594 54.222656 13.917969 54.304688 13.792969 C 54.910156 12.113281 55.292969 10.3125 55.402344 8.425781 C 52.671875 8.582031 45.734375 9.304688 41.59375 12.632812 C 38.847656 14.84375 36.578125 17.875 35.035156 21.402344 C 34.335938 23.007812 32.675781 23.945312 30.917969 23.738281 C 28.214844 23.417969 25.03125 24.539062 22.613281 26.664062 C 17.324219 31.320312 15.164062 34.660156 15.164062 38.195312 C 15.164062 38.4375 15.171875 38.644531 15.183594 38.832031 L 17.050781 37.546875 C 17.558594 37.195312 18.253906 37.328125 18.605469 37.839844 C 18.953125 38.351562 18.824219 39.050781 18.3125 39.402344 L 15.792969 41.140625 C 16.1875 41.855469 16.84375 42.402344 17.789062 42.800781 Z M 17.789062 42.800781 "/></g><path style=" stroke:none;fill-rule:nonzero;fill:#ffffff;fill-opacity:1;" d="M 30.632812 30.511719 C 31.070312 30.949219 31.070312 31.664062 30.632812 32.101562 C 30.199219 32.542969 29.488281 32.542969 29.050781 32.101562 C 28.179688 31.226562 26.761719 31.226562 25.886719 32.101562 C 25.667969 32.320312 25.382812 32.433594 25.097656 32.433594 C 24.8125 32.433594 24.523438 32.320312 24.304688 32.101562 C 23.871094 31.664062 23.871094 30.949219 24.304688 30.511719 C 26.050781 28.757812 28.890625 28.757812 30.632812 30.511719 Z M 30.632812 30.511719 "/><path style=" stroke:none;fill-rule:nonzero;fill:#ffffff;fill-opacity:1;" d="M 50.328125 13.445312 C 50.9375 13.40625 51.476562 13.875 51.519531 14.492188 C 51.558594 15.113281 51.09375 15.648438 50.476562 15.691406 C 42.824219 16.203125 39.746094 21.121094 39.613281 21.339844 C 39.402344 21.6875 39.035156 21.882812 38.65625 21.882812 C 38.460938 21.882812 38.261719 21.828125 38.082031 21.722656 C 37.550781 21.402344 37.378906 20.710938 37.699219 20.175781 C 37.847656 19.925781 41.457031 14.039062 50.328125 13.445312 Z M 50.328125 13.445312 "/><g style="fill:#ffffff;fill-opacity:1;"><g transform="translate(19.742238, 90.149997)"><path style="stroke:none" d="M 3 0.09375 C 2.476562 0.09375 2.007812 -0.015625 1.59375 -0.234375 C 1.1875 -0.453125 0.863281 -0.773438 0.625 -1.203125 C 0.382812 -1.640625 0.265625 -2.179688 0.265625 -2.828125 C 0.265625 -3.472656 0.378906 -4.015625 0.609375 -4.453125 C 0.847656 -4.890625 1.175781 -5.210938 1.59375 -5.421875 C 2.019531 -5.640625 2.5 -5.75 3.03125 -5.75 C 3.476562 -5.75 3.867188 -5.671875 4.203125 -5.515625 C 4.546875 -5.359375 4.832031 -5.125 5.0625 -4.8125 C 5.300781 -4.507812 5.457031 -4.140625 5.53125 -3.703125 L 5.0625 -3.703125 C 5 -4.054688 4.867188 -4.351562 4.671875 -4.59375 C 4.484375 -4.84375 4.25 -5.023438 3.96875 -5.140625 C 3.695312 -5.265625 3.382812 -5.328125 3.03125 -5.328125 C 2.320312 -5.328125 1.757812 -5.113281 1.34375 -4.6875 C 0.9375 -4.257812 0.734375 -3.644531 0.734375 -2.84375 C 0.734375 -2.007812 0.9375 -1.378906 1.34375 -0.953125 C 1.75 -0.535156 2.300781 -0.328125 3 -0.328125 C 3.375 -0.328125 3.707031 -0.390625 4 -0.515625 C 4.300781 -0.640625 4.539062 -0.820312 4.71875 -1.0625 C 4.90625 -1.300781 5.03125 -1.597656 5.09375 -1.953125 L 5.59375 -1.953125 C 5.507812 -1.515625 5.351562 -1.140625 5.125 -0.828125 C 4.894531 -0.523438 4.597656 -0.296875 4.234375 -0.140625 C 3.878906 0.015625 3.46875 0.09375 3 0.09375 Z M 3 0.09375 "/></g></g><g style="fill:#ffffff;fill-opacity:1;"><g transform="translate(25.690785, 90.149997)"><path style="stroke:none" d="M 0.65625 0 L 0.65625 -5.65625 L 2.40625 -5.65625 C 2.882812 -5.65625 3.285156 -5.609375 3.609375 -5.515625 C 3.941406 -5.421875 4.191406 -5.257812 4.359375 -5.03125 C 4.535156 -4.800781 4.625 -4.476562 4.625 -4.0625 C 4.625 -3.8125 4.578125 -3.578125 4.484375 -3.359375 C 4.390625 -3.140625 4.242188 -2.957031 4.046875 -2.8125 C 3.847656 -2.675781 3.59375 -2.609375 3.28125 -2.609375 C 3.539062 -2.609375 3.742188 -2.5625 3.890625 -2.46875 C 4.035156 -2.375 4.140625 -2.25 4.203125 -2.09375 C 4.265625 -1.9375 4.300781 -1.765625 4.3125 -1.578125 C 4.332031 -1.398438 4.34375 -1.222656 4.34375 -1.046875 C 4.34375 -0.878906 4.351562 -0.726562 4.375 -0.59375 C 4.394531 -0.457031 4.441406 -0.363281 4.515625 -0.3125 C 4.585938 -0.257812 4.707031 -0.257812 4.875 -0.3125 L 4.875 0.015625 C 4.84375 0.046875 4.773438 0.0703125 4.671875 0.09375 C 4.578125 0.113281 4.472656 0.101562 4.359375 0.0625 C 4.242188 0.03125 4.144531 -0.0390625 4.0625 -0.15625 C 3.988281 -0.28125 3.953125 -0.46875 3.953125 -0.71875 C 3.953125 -1.101562 3.9375 -1.410156 3.90625 -1.640625 C 3.875 -1.878906 3.804688 -2.054688 3.703125 -2.171875 C 3.609375 -2.296875 3.457031 -2.378906 3.25 -2.421875 C 3.039062 -2.472656 2.765625 -2.5 2.421875 -2.5 C 2.078125 -2.5 1.640625 -2.492188 1.109375 -2.484375 L 1.109375 0 Z M 1.109375 -2.859375 L 2.59375 -2.859375 C 2.957031 -2.859375 3.257812 -2.894531 3.5 -2.96875 C 3.738281 -3.039062 3.914062 -3.160156 4.03125 -3.328125 C 4.144531 -3.503906 4.203125 -3.742188 4.203125 -4.046875 C 4.203125 -4.398438 4.128906 -4.660156 3.984375 -4.828125 C 3.835938 -5.003906 3.625 -5.117188 3.34375 -5.171875 C 3.070312 -5.222656 2.738281 -5.25 2.34375 -5.25 L 1.109375 -5.25 Z M 1.109375 -2.859375 "/></g></g><g style="fill:#ffffff;fill-opacity:1;"><g transform="translate(30.907048, 90.149997)"><path style="stroke:none" d="M 2.8125 0.140625 C 2.082031 0.140625 1.515625 -0.0820312 1.109375 -0.53125 C 0.710938 -0.976562 0.515625 -1.601562 0.515625 -2.40625 L 0.515625 -5.65625 L 0.96875 -5.65625 L 0.96875 -2.40625 C 0.96875 -2.050781 1.007812 -1.738281 1.09375 -1.46875 C 1.1875 -1.207031 1.3125 -0.988281 1.46875 -0.8125 C 1.632812 -0.632812 1.832031 -0.503906 2.0625 -0.421875 C 2.289062 -0.335938 2.539062 -0.296875 2.8125 -0.296875 C 3.21875 -0.296875 3.554688 -0.367188 3.828125 -0.515625 C 4.097656 -0.671875 4.300781 -0.90625 4.4375 -1.21875 C 4.582031 -1.539062 4.65625 -1.9375 4.65625 -2.40625 L 4.65625 -5.65625 L 5.109375 -5.65625 L 5.109375 -2.40625 C 5.109375 -1.582031 4.910156 -0.953125 4.515625 -0.515625 C 4.128906 -0.078125 3.5625 0.140625 2.8125 0.140625 Z M 2.8125 0.140625 "/></g></g><g style="fill:#ffffff;fill-opacity:1;"><g transform="translate(36.594784, 90.149997)"><path style="stroke:none" d="M 0.578125 0 L 0.578125 -5.65625 L 4.265625 -5.65625 L 4.265625 -5.234375 L 1.046875 -5.234375 L 1.046875 -3.0625 L 3.609375 -3.0625 L 3.609375 -2.65625 L 1.046875 -2.65625 L 1.046875 -0.390625 L 4.34375 -0.390625 L 4.34375 0 Z M 0.578125 0 "/></g></g><g style="fill:#ffffff;fill-opacity:1;"><g transform="translate(41.289425, 90.149997)"><path style="stroke:none" d="M 0.6875 -0.125 L 0.6875 -5.65625 L 1.140625 -5.65625 L 1.140625 -0.125 Z M 0.6875 0 L 0.6875 -0.40625 L 4.453125 -0.40625 L 4.453125 0 Z M 0.6875 0 "/></g></g><g style="fill:#ffffff;fill-opacity:1;"><g transform="translate(45.160606, 90.149997)"><path style="stroke:none" d="M 2.4375 -5.46875 L 2.4375 0 L 1.984375 0 L 1.984375 -5.46875 Z M 0.09375 -5.25 L 0.09375 -5.65625 L 4.3125 -5.65625 L 4.3125 -5.25 Z M 0.09375 -5.25 "/></g></g><g style="fill:#ffffff;fill-opacity:1;"><g transform="translate(50.076473, 90.149997)"><path style="stroke:none" d="M 1.84375 -2.0625 L -0.09375 -5.65625 L 0.40625 -5.65625 L 2.078125 -2.546875 L 3.71875 -5.65625 L 4.21875 -5.65625 L 2.265625 -2.0625 Z M 1.828125 0 L 1.828125 -2.1875 L 2.296875 -2.1875 L 2.296875 0 Z M 1.828125 0 "/></g></g><g style="fill:#ffffff;fill-opacity:1;"><g transform="translate(54.309676, 90.149997)"><path style="stroke:none" d=""/></g></g><g style="fill:#ffffff;fill-opacity:1;"><g transform="translate(56.777377, 90.149997)"><path style="stroke:none" d="M 1.1875 0 L 0.71875 0 L 0.71875 -5.65625 L 4.578125 -5.65625 L 4.578125 -5.234375 L 1.1875 -5.234375 L 1.1875 -3.21875 L 3.890625 -3.21875 L 3.890625 -2.828125 L 1.1875 -2.828125 Z M 1.1875 0 "/></g></g><g style="fill:#ffffff;fill-opacity:1;"><g transform="translate(61.642592, 90.149997)"><path style="stroke:none" d="M 0.65625 0 L 0.65625 -5.65625 L 2.40625 -5.65625 C 2.882812 -5.65625 3.285156 -5.609375 3.609375 -5.515625 C 3.941406 -5.421875 4.191406 -5.257812 4.359375 -5.03125 C 4.535156 -4.800781 4.625 -4.476562 4.625 -4.0625 C 4.625 -3.8125 4.578125 -3.578125 4.484375 -3.359375 C 4.390625 -3.140625 4.242188 -2.957031 4.046875 -2.8125 C 3.847656 -2.675781 3.59375 -2.609375 3.28125 -2.609375 C 3.539062 -2.609375 3.742188 -2.5625 3.890625 -2.46875 C 4.035156 -2.375 4.140625 -2.25 4.203125 -2.09375 C 4.265625 -1.9375 4.300781 -1.765625 4.3125 -1.578125 C 4.332031 -1.398438 4.34375 -1.222656 4.34375 -1.046875 C 4.34375 -0.878906 4.351562 -0.726562 4.375 -0.59375 C 4.394531 -0.457031 4.441406 -0.363281 4.515625 -0.3125 C 4.585938 -0.257812 4.707031 -0.257812 4.875 -0.3125 L 4.875 0.015625 C 4.84375 0.046875 4.773438 0.0703125 4.671875 0.09375 C 4.578125 0.113281 4.472656 0.101562 4.359375 0.0625 C 4.242188 0.03125 4.144531 -0.0390625 4.0625 -0.15625 C 3.988281 -0.28125 3.953125 -0.46875 3.953125 -0.71875 C 3.953125 -1.101562 3.9375 -1.410156 3.90625 -1.640625 C 3.875 -1.878906 3.804688 -2.054688 3.703125 -2.171875 C 3.609375 -2.296875 3.457031 -2.378906 3.25 -2.421875 C 3.039062 -2.472656 2.765625 -2.5 2.421875 -2.5 C 2.078125 -2.5 1.640625 -2.492188 1.109375 -2.484375 L 1.109375 0 Z M 1.109375 -2.859375 L 2.59375 -2.859375 C 2.957031 -2.859375 3.257812 -2.894531 3.5 -2.96875 C 3.738281 -3.039062 3.914062 -3.160156 4.03125 -3.328125 C 4.144531 -3.503906 4.203125 -3.742188 4.203125 -4.046875 C 4.203125 -4.398438 4.128906 -4.660156 3.984375 -4.828125 C 3.835938 -5.003906 3.625 -5.117188 3.34375 -5.171875 C 3.070312 -5.222656 2.738281 -5.25 2.34375 -5.25 L 1.109375 -5.25 Z M 1.109375 -2.859375 "/></g></g><g style="fill:#ffffff;fill-opacity:1;"><g transform="translate(66.858855, 90.149997)"><path style="stroke:none" d="M 0.578125 0 L 0.578125 -5.65625 L 4.265625 -5.65625 L 4.265625 -5.234375 L 1.046875 -5.234375 L 1.046875 -3.0625 L 3.609375 -3.0625 L 3.609375 -2.65625 L 1.046875 -2.65625 L 1.046875 -0.390625 L 4.34375 -0.390625 L 4.34375 0 Z M 0.578125 0 "/></g></g><g style="fill:#ffffff;fill-opacity:1;"><g transform="translate(71.553495, 90.149997)"><path style="stroke:none" d="M 0.578125 0 L 0.578125 -5.65625 L 4.265625 -5.65625 L 4.265625 -5.234375 L 1.046875 -5.234375 L 1.046875 -3.0625 L 3.609375 -3.0625 L 3.609375 -2.65625 L 1.046875 -2.65625 L 1.046875 -0.390625 L 4.34375 -0.390625 L 4.34375 0 Z M 0.578125 0 "/></g></g></g></svg>