<svg xmlns="http://www.w3.org/2000/svg" xmlns:xlink="http://www.w3.org/1999/xlink" width="500" zoomAndPan="magnify" viewBox="0 0 375 374.999991" height="500" preserveAspectRatio="xMidYMid meet" version="1.2"><defs><clipPath id="43b7dbd1c1"><path d="M 101.800781 31.519531 L 273.199219 31.519531 L 273.199219 202.917969 L 101.800781 202.917969 Z M 101.800781 31.519531 "/></clipPath><clipPath id="0c57d27c86"><path d="M 187.5 31.519531 C 140.167969 31.519531 101.800781 69.886719 101.800781 117.21875 C 101.800781 164.546875 140.167969 202.917969 187.5 202.917969 C 234.832031 202.917969 273.199219 164.546875 273.199219 117.21875 C 273.199219 69.886719 234.832031 31.519531 187.5 31.519531 Z M 187.5 31.519531 "/></clipPath><clipPath id="3b81708097"><path d="M 22 228.554688 L 352 228.554688 L 352 343.304688 L 22 343.304688 Z M 22 228.554688 "/></clipPath></defs><g id="d78172cda3"><rect x="0" width="375" y="0" height="374.999991" style="fill:#ffffff;fill-opacity:1;stroke:none;"/><rect x="0" width="375" y="0" height="374.999991" style="fill:#ffeedc;fill-opacity:1;stroke:none;"/><g clip-rule="nonzero" clip-path="url(#43b7dbd1c1)"><g clip-rule="nonzero" clip-path="url(#0c57d27c86)"><path style="fill:none;stroke-width:10;stroke-linecap:butt;stroke-linejoin:miter;stroke:#241b19;stroke-opacity:1;stroke-miterlimit:4;" d="M 114.265722 0.00247515 C 51.156343 0.00247515 0.0000899132 51.158729 0.0000899132 114.268108 C 0.0000899132 177.372278 51.156343 228.53374 114.265722 228.53374 C 177.375102 228.53374 228.531355 177.372278 228.531355 114.268108 C 228.531355 51.158729 177.375102 0.00247515 114.265722 0.00247515 Z M 114.265722 0.00247515 " transform="matrix(0.75,0,0,0.75,101.800714,31.517675)"/></g></g><g clip-rule="nonzero" clip-path="url(#3b81708097)"><path style=" stroke:none;fill-rule:nonzero;fill:#241b19;fill-opacity:1;" d="M 349.796875 343.011719 C 349.417969 343.007812 349.070312 342.898438 348.757812 342.6875 C 348.445312 342.472656 348.214844 342.191406 348.074219 341.835938 C 346.492188 337.832031 344.765625 333.886719 342.886719 330.011719 C 341.011719 326.132812 338.992188 322.332031 336.832031 318.605469 C 334.671875 314.878906 332.378906 311.234375 329.945312 307.679688 C 327.511719 304.125 324.953125 300.664062 322.261719 297.300781 C 319.570312 293.9375 316.757812 290.679688 313.824219 287.523438 C 310.890625 284.371094 307.839844 281.332031 304.679688 278.40625 C 301.519531 275.480469 298.253906 272.675781 294.882812 269.992188 C 291.511719 267.3125 288.046875 264.757812 284.484375 262.335938 C 280.921875 259.914062 277.273438 257.625 273.542969 255.476562 C 269.808594 253.324219 266.003906 251.316406 262.121094 249.449219 C 258.238281 247.582031 254.292969 245.863281 250.28125 244.292969 C 246.269531 242.722656 242.207031 241.300781 238.089844 240.035156 C 233.972656 238.765625 229.8125 237.65625 225.613281 236.699219 C 221.414062 235.742188 217.183594 234.941406 212.925781 234.300781 C 208.664062 233.660156 204.386719 233.179688 200.089844 232.855469 C 195.796875 232.535156 191.492188 232.375 187.1875 232.375 C 182.878906 232.375 178.578125 232.535156 174.28125 232.855469 C 169.984375 233.179688 165.707031 233.660156 161.449219 234.300781 C 157.1875 234.941406 152.957031 235.742188 148.757812 236.699219 C 144.558594 237.65625 140.398438 238.765625 136.285156 240.035156 C 132.167969 241.300781 128.101562 242.722656 124.089844 244.292969 C 120.082031 245.863281 116.132812 247.582031 112.25 249.449219 C 108.371094 251.316406 104.5625 253.324219 100.828125 255.476562 C 97.097656 257.625 93.449219 259.914062 89.890625 262.335938 C 86.328125 264.757812 82.859375 267.3125 79.492188 269.992188 C 76.121094 272.675781 72.851562 275.480469 69.691406 278.40625 C 66.53125 281.332031 63.484375 284.371094 60.550781 287.523438 C 57.613281 290.679688 54.800781 293.9375 52.113281 297.300781 C 49.421875 300.664062 46.859375 304.125 44.425781 307.679688 C 41.996094 311.234375 39.699219 314.878906 37.539062 318.605469 C 35.378906 322.332031 33.359375 326.132812 31.484375 330.011719 C 29.609375 333.886719 27.878906 337.832031 26.296875 341.835938 C 26.207031 342.0625 26.078125 342.265625 25.910156 342.441406 C 25.742188 342.617188 25.546875 342.753906 25.324219 342.855469 C 25.101562 342.953125 24.867188 343.007812 24.625 343.015625 C 24.378906 343.023438 24.144531 342.984375 23.914062 342.902344 C 23.664062 342.839844 23.4375 342.726562 23.234375 342.570312 C 23.03125 342.410156 22.871094 342.21875 22.746094 341.992188 C 22.625 341.765625 22.554688 341.523438 22.535156 341.265625 C 22.515625 341.011719 22.546875 340.761719 22.632812 340.519531 C 24.242188 336.421875 26.007812 332.390625 27.921875 328.421875 C 29.832031 324.457031 31.890625 320.570312 34.097656 316.757812 C 36.300781 312.945312 38.644531 309.222656 41.128906 305.585938 C 43.609375 301.949219 46.226562 298.410156 48.972656 294.96875 C 51.71875 291.527344 54.59375 288.195312 57.589844 284.96875 C 60.585938 281.742188 63.699219 278.632812 66.925781 275.640625 C 70.15625 272.648438 73.492188 269.777344 76.9375 267.035156 C 80.378906 264.292969 83.921875 261.679688 87.5625 259.203125 C 91.199219 256.722656 94.925781 254.382812 98.742188 252.183594 C 102.554688 249.984375 106.445312 247.929688 110.414062 246.019531 C 114.378906 244.109375 118.414062 242.351562 122.511719 240.742188 C 126.613281 239.136719 130.765625 237.683594 134.972656 236.386719 C 139.179688 235.089844 143.433594 233.953125 147.722656 232.972656 C 152.015625 231.992188 156.339844 231.175781 160.695312 230.519531 C 165.046875 229.863281 169.421875 229.371094 173.8125 229.042969 C 178.203125 228.714844 182.601562 228.550781 187.003906 228.550781 C 191.40625 228.550781 195.804688 228.714844 200.195312 229.042969 C 204.585938 229.371094 208.957031 229.863281 213.3125 230.519531 C 217.664062 231.175781 221.988281 231.992188 226.28125 232.972656 C 230.574219 233.953125 234.824219 235.089844 239.03125 236.386719 C 243.238281 237.683594 247.394531 239.136719 251.492188 240.742188 C 255.589844 242.351562 259.625 244.109375 263.59375 246.019531 C 267.558594 247.929688 271.449219 249.984375 275.265625 252.183594 C 279.078125 254.382812 282.804688 256.722656 286.445312 259.203125 C 290.082031 261.679688 293.625 264.292969 297.070312 267.035156 C 300.511719 269.777344 303.847656 272.648438 307.078125 275.640625 C 310.308594 278.632812 313.421875 281.742188 316.417969 284.96875 C 319.414062 288.195312 322.285156 291.527344 325.03125 294.96875 C 327.78125 298.410156 330.394531 301.949219 332.878906 305.585938 C 335.359375 309.222656 337.703125 312.945312 339.910156 316.757812 C 342.113281 320.570312 344.171875 324.457031 346.085938 328.421875 C 348 332.390625 349.761719 336.421875 351.375 340.519531 C 351.460938 340.746094 351.5 340.976562 351.492188 341.21875 C 351.488281 341.460938 351.4375 341.695312 351.339844 341.917969 C 351.246094 342.136719 351.113281 342.335938 350.941406 342.503906 C 350.769531 342.675781 350.570312 342.808594 350.347656 342.902344 C 350.167969 342.960938 349.984375 343 349.796875 343.011719 Z M 349.796875 343.011719 "/></g></g></svg>