<svg xmlns="http://www.w3.org/2000/svg" xmlns:xlink="http://www.w3.org/1999/xlink" width="128" zoomAndPan="magnify" viewBox="0 0 96 95.999999" height="128" preserveAspectRatio="xMidYMid meet" version="1.2"><defs><clipPath id="baea1c5e3a"><path d="M 40 8.441406 L 82 8.441406 L 82 71 L 40 71 Z M 40 8.441406 "/></clipPath><clipPath id="1c7589db1a"><path d="M 9.601562 40 L 73 40 L 73 74 L 9.601562 74 Z M 9.601562 40 "/></clipPath></defs><g id="ca8810b0ae"><rect x="0" width="96" y="0" height="95.999999" style="fill:#ffffff;fill-opacity:1;stroke:none;"/><rect x="0" width="96" y="0" height="95.999999" style="fill:#ffffff;fill-opacity:1;stroke:none;"/><g style="fill:#241b19;fill-opacity:1;"><g transform="translate(7.242188, 87.45924)"><path style="stroke:none" d="M 4.203125 -5.09375 L 4.609375 -5.09375 L 4.609375 0 L 3.859375 0 L 0.921875 -4.90625 L 0.90625 -4.90625 L 0.90625 0 L 0.5 0 L 0.5 -5.09375 L 1.21875 -5.09375 L 4.1875 -0.1875 L 4.203125 -0.1875 Z M 4.203125 -5.09375 "/></g></g><g style="fill:#241b19;fill-opacity:1;"><g transform="translate(12.383171, 87.45924)"><path style="stroke:none" d="M 0.1875 0 L 2.046875 -5.09375 L 2.734375 -5.09375 L 4.625 0 L 4.1875 0 L 2.390625 -4.90625 L 0.59375 0 Z M 1.09375 -1.671875 L 1.171875 -2.03125 L 3.625 -2.03125 L 3.6875 -1.671875 Z M 1.09375 -1.671875 "/></g></g><g style="fill:#241b19;fill-opacity:1;"><g transform="translate(16.692409, 87.45924)"><path style="stroke:none" d="M 2.203125 -4.9375 L 2.203125 0 L 1.796875 0 L 1.796875 -4.9375 Z M 0.09375 -4.71875 L 0.09375 -5.09375 L 3.890625 -5.09375 L 3.890625 -4.71875 Z M 0.09375 -4.71875 "/></g></g><g style="fill:#241b19;fill-opacity:1;"><g transform="translate(20.685928, 87.45924)"><path style="stroke:none" d="M 2.53125 0.125 C 1.875 0.125 1.363281 -0.0703125 1 -0.46875 C 0.644531 -0.875 0.46875 -1.441406 0.46875 -2.171875 L 0.46875 -5.09375 L 0.875 -5.09375 L 0.875 -2.171875 C 0.875 -1.847656 0.910156 -1.566406 0.984375 -1.328125 C 1.066406 -1.097656 1.179688 -0.898438 1.328125 -0.734375 C 1.472656 -0.578125 1.644531 -0.457031 1.84375 -0.375 C 2.050781 -0.300781 2.28125 -0.265625 2.53125 -0.265625 C 2.894531 -0.265625 3.195312 -0.332031 3.4375 -0.46875 C 3.6875 -0.601562 3.875 -0.8125 4 -1.09375 C 4.132812 -1.382812 4.203125 -1.742188 4.203125 -2.171875 L 4.203125 -5.09375 L 4.609375 -5.09375 L 4.609375 -2.171875 C 4.609375 -1.429688 4.429688 -0.863281 4.078125 -0.46875 C 3.722656 -0.0703125 3.207031 0.125 2.53125 0.125 Z M 2.53125 0.125 "/></g></g><g style="fill:#241b19;fill-opacity:1;"><g transform="translate(25.808841, 87.45924)"><path style="stroke:none" d="M 0.59375 0 L 0.59375 -5.09375 L 2.171875 -5.09375 C 2.597656 -5.09375 2.957031 -5.050781 3.25 -4.96875 C 3.550781 -4.882812 3.773438 -4.738281 3.921875 -4.53125 C 4.078125 -4.320312 4.15625 -4.03125 4.15625 -3.65625 C 4.15625 -3.425781 4.113281 -3.210938 4.03125 -3.015625 C 3.945312 -2.816406 3.816406 -2.65625 3.640625 -2.53125 C 3.460938 -2.414062 3.234375 -2.359375 2.953125 -2.359375 C 3.179688 -2.359375 3.363281 -2.3125 3.5 -2.21875 C 3.632812 -2.132812 3.726562 -2.019531 3.78125 -1.875 C 3.84375 -1.738281 3.878906 -1.585938 3.890625 -1.421875 C 3.910156 -1.265625 3.921875 -1.109375 3.921875 -0.953125 C 3.921875 -0.796875 3.925781 -0.65625 3.9375 -0.53125 C 3.957031 -0.414062 4 -0.332031 4.0625 -0.28125 C 4.132812 -0.226562 4.242188 -0.226562 4.390625 -0.28125 L 4.390625 0.015625 C 4.359375 0.0351562 4.296875 0.0546875 4.203125 0.078125 C 4.117188 0.0976562 4.023438 0.09375 3.921875 0.0625 C 3.816406 0.03125 3.726562 -0.0351562 3.65625 -0.140625 C 3.59375 -0.253906 3.5625 -0.421875 3.5625 -0.640625 C 3.5625 -0.992188 3.546875 -1.273438 3.515625 -1.484375 C 3.484375 -1.691406 3.425781 -1.847656 3.34375 -1.953125 C 3.257812 -2.066406 3.125 -2.144531 2.9375 -2.1875 C 2.75 -2.226562 2.5 -2.25 2.1875 -2.25 C 1.875 -2.25 1.476562 -2.25 1 -2.25 L 1 0 Z M 1 -2.578125 L 2.328125 -2.578125 C 2.660156 -2.578125 2.929688 -2.609375 3.140625 -2.671875 C 3.359375 -2.734375 3.519531 -2.84375 3.625 -3 C 3.738281 -3.15625 3.796875 -3.367188 3.796875 -3.640625 C 3.796875 -3.960938 3.726562 -4.203125 3.59375 -4.359375 C 3.457031 -4.515625 3.265625 -4.613281 3.015625 -4.65625 C 2.773438 -4.707031 2.472656 -4.734375 2.109375 -4.734375 L 1 -4.734375 Z M 1 -2.578125 "/></g></g><g style="fill:#241b19;fill-opacity:1;"><g transform="translate(30.597552, 87.45924)"><path style="stroke:none" d="M 0.1875 0 L 2.046875 -5.09375 L 2.734375 -5.09375 L 4.625 0 L 4.1875 0 L 2.390625 -4.90625 L 0.59375 0 Z M 1.09375 -1.671875 L 1.171875 -2.03125 L 3.625 -2.03125 L 3.6875 -1.671875 Z M 1.09375 -1.671875 "/></g></g><g style="fill:#241b19;fill-opacity:1;"><g transform="translate(35.377131, 87.45924)"><path style="stroke:none" d="M 0.609375 -0.109375 L 0.609375 -5.09375 L 1.015625 -5.09375 L 1.015625 -0.109375 Z M 0.609375 0 L 0.609375 -0.359375 L 4 -0.359375 L 4 0 Z M 0.609375 0 "/></g></g><g style="fill:#241b19;fill-opacity:1;"><g transform="translate(39.587492, 87.45924)"><path style="stroke:none" d=""/></g></g><g style="fill:#241b19;fill-opacity:1;"><g transform="translate(41.810129, 87.45924)"><path style="stroke:none" d="M 1.21875 -0.15625 L 1.21875 -4.9375 L 1.625 -4.9375 L 1.625 -0.15625 Z M 0.5 0 L 0.5 -0.359375 L 2.328125 -0.359375 L 2.328125 0 Z M 0.5 -4.71875 L 0.5 -5.09375 L 2.328125 -5.09375 L 2.328125 -4.71875 Z M 0.5 -4.71875 "/></g></g><g style="fill:#241b19;fill-opacity:1;"><g transform="translate(44.728476, 87.45924)"><path style="stroke:none" d="M 4.203125 -5.09375 L 4.609375 -5.09375 L 4.609375 0 L 3.859375 0 L 0.921875 -4.90625 L 0.90625 -4.90625 L 0.90625 0 L 0.5 0 L 0.5 -5.09375 L 1.21875 -5.09375 L 4.1875 -0.1875 L 4.203125 -0.1875 Z M 4.203125 -5.09375 "/></g></g><g style="fill:#241b19;fill-opacity:1;"><g transform="translate(49.869459, 87.45924)"><path style="stroke:none" d="M 2.625 0.125 C 2.144531 0.125 1.722656 0.0195312 1.359375 -0.1875 C 1.003906 -0.394531 0.726562 -0.695312 0.53125 -1.09375 C 0.34375 -1.488281 0.25 -1.96875 0.25 -2.53125 C 0.25 -3.082031 0.347656 -3.554688 0.546875 -3.953125 C 0.742188 -4.359375 1.03125 -4.664062 1.40625 -4.875 C 1.78125 -5.082031 2.21875 -5.1875 2.71875 -5.1875 C 3.332031 -5.1875 3.835938 -5.035156 4.234375 -4.734375 C 4.628906 -4.441406 4.875 -4.003906 4.96875 -3.421875 L 4.578125 -3.40625 C 4.515625 -3.71875 4.394531 -3.976562 4.21875 -4.1875 C 4.050781 -4.394531 3.84375 -4.546875 3.59375 -4.640625 C 3.34375 -4.742188 3.050781 -4.796875 2.71875 -4.796875 C 2.039062 -4.796875 1.523438 -4.59375 1.171875 -4.1875 C 0.816406 -3.789062 0.640625 -3.242188 0.640625 -2.546875 C 0.640625 -1.828125 0.820312 -1.265625 1.1875 -0.859375 C 1.550781 -0.460938 2.054688 -0.265625 2.703125 -0.265625 C 3.054688 -0.265625 3.367188 -0.332031 3.640625 -0.46875 C 3.921875 -0.601562 4.144531 -0.796875 4.3125 -1.046875 C 4.476562 -1.304688 4.578125 -1.617188 4.609375 -1.984375 L 3.046875 -1.984375 L 3.046875 -2.328125 L 5.078125 -2.328125 L 5.078125 0 L 4.765625 0 L 4.671875 -1.234375 L 4.65625 -1.234375 C 4.625 -1.109375 4.5625 -0.96875 4.46875 -0.8125 C 4.375 -0.65625 4.242188 -0.503906 4.078125 -0.359375 C 3.921875 -0.222656 3.722656 -0.109375 3.484375 -0.015625 C 3.242188 0.078125 2.957031 0.125 2.625 0.125 Z M 2.625 0.125 "/></g></g><g style="fill:#241b19;fill-opacity:1;"><g transform="translate(55.317636, 87.45924)"><path style="stroke:none" d="M 0.59375 0 L 0.59375 -5.09375 L 2.171875 -5.09375 C 2.597656 -5.09375 2.957031 -5.050781 3.25 -4.96875 C 3.550781 -4.882812 3.773438 -4.738281 3.921875 -4.53125 C 4.078125 -4.320312 4.15625 -4.03125 4.15625 -3.65625 C 4.15625 -3.425781 4.113281 -3.210938 4.03125 -3.015625 C 3.945312 -2.816406 3.816406 -2.65625 3.640625 -2.53125 C 3.460938 -2.414062 3.234375 -2.359375 2.953125 -2.359375 C 3.179688 -2.359375 3.363281 -2.3125 3.5 -2.21875 C 3.632812 -2.132812 3.726562 -2.019531 3.78125 -1.875 C 3.84375 -1.738281 3.878906 -1.585938 3.890625 -1.421875 C 3.910156 -1.265625 3.921875 -1.109375 3.921875 -0.953125 C 3.921875 -0.796875 3.925781 -0.65625 3.9375 -0.53125 C 3.957031 -0.414062 4 -0.332031 4.0625 -0.28125 C 4.132812 -0.226562 4.242188 -0.226562 4.390625 -0.28125 L 4.390625 0.015625 C 4.359375 0.0351562 4.296875 0.0546875 4.203125 0.078125 C 4.117188 0.0976562 4.023438 0.09375 3.921875 0.0625 C 3.816406 0.03125 3.726562 -0.0351562 3.65625 -0.140625 C 3.59375 -0.253906 3.5625 -0.421875 3.5625 -0.640625 C 3.5625 -0.992188 3.546875 -1.273438 3.515625 -1.484375 C 3.484375 -1.691406 3.425781 -1.847656 3.34375 -1.953125 C 3.257812 -2.066406 3.125 -2.144531 2.9375 -2.1875 C 2.75 -2.226562 2.5 -2.25 2.1875 -2.25 C 1.875 -2.25 1.476562 -2.25 1 -2.25 L 1 0 Z M 1 -2.578125 L 2.328125 -2.578125 C 2.660156 -2.578125 2.929688 -2.609375 3.140625 -2.671875 C 3.359375 -2.734375 3.519531 -2.84375 3.625 -3 C 3.738281 -3.15625 3.796875 -3.367188 3.796875 -3.640625 C 3.796875 -3.960938 3.726562 -4.203125 3.59375 -4.359375 C 3.457031 -4.515625 3.265625 -4.613281 3.015625 -4.65625 C 2.773438 -4.707031 2.472656 -4.734375 2.109375 -4.734375 L 1 -4.734375 Z M 1 -2.578125 "/></g></g><g style="fill:#241b19;fill-opacity:1;"><g transform="translate(60.015893, 87.45924)"><path style="stroke:none" d="M 0.53125 0 L 0.53125 -5.09375 L 3.828125 -5.09375 L 3.828125 -4.71875 L 0.9375 -4.71875 L 0.9375 -2.765625 L 3.25 -2.765625 L 3.25 -2.390625 L 0.9375 -2.390625 L 0.9375 -0.359375 L 3.921875 -0.359375 L 3.921875 0 Z M 0.53125 0 "/></g></g><g style="fill:#241b19;fill-opacity:1;"><g transform="translate(64.244325, 87.45924)"><path style="stroke:none" d="M 1.03125 -0.359375 L 1.03125 -4.71875 L 2.015625 -4.71875 C 2.515625 -4.71875 2.953125 -4.640625 3.328125 -4.484375 C 3.703125 -4.328125 3.988281 -4.085938 4.1875 -3.765625 C 4.394531 -3.453125 4.5 -3.046875 4.5 -2.546875 C 4.5 -2.097656 4.441406 -1.726562 4.328125 -1.4375 C 4.210938 -1.15625 4.039062 -0.9375 3.8125 -0.78125 C 3.59375 -0.625 3.328125 -0.515625 3.015625 -0.453125 C 2.710938 -0.390625 2.378906 -0.359375 2.015625 -0.359375 C 1.941406 -0.359375 1.828125 -0.359375 1.671875 -0.359375 C 1.523438 -0.359375 1.3125 -0.359375 1.03125 -0.359375 Z M 4.953125 -2.546875 C 4.953125 -3.117188 4.828125 -3.585938 4.578125 -3.953125 C 4.328125 -4.328125 3.972656 -4.609375 3.515625 -4.796875 C 3.066406 -4.992188 2.539062 -5.09375 1.9375 -5.09375 C 1.851562 -5.09375 1.710938 -5.09375 1.515625 -5.09375 C 1.316406 -5.09375 1.015625 -5.09375 0.609375 -5.09375 L 0.609375 0 C 0.992188 0 1.285156 0 1.484375 0 C 1.691406 0 1.84375 0 1.9375 0 C 2.539062 0 3.066406 -0.0703125 3.515625 -0.21875 C 3.972656 -0.363281 4.328125 -0.617188 4.578125 -0.984375 C 4.828125 -1.359375 4.953125 -1.878906 4.953125 -2.546875 Z M 4.953125 -2.546875 "/></g></g><g style="fill:#241b19;fill-opacity:1;"><g transform="translate(69.466618, 87.45924)"><path style="stroke:none" d="M 1.21875 -0.15625 L 1.21875 -4.9375 L 1.625 -4.9375 L 1.625 -0.15625 Z M 0.5 0 L 0.5 -0.359375 L 2.328125 -0.359375 L 2.328125 0 Z M 0.5 -4.71875 L 0.5 -5.09375 L 2.328125 -5.09375 L 2.328125 -4.71875 Z M 0.5 -4.71875 "/></g></g><g style="fill:#241b19;fill-opacity:1;"><g transform="translate(72.384964, 87.45924)"><path style="stroke:none" d="M 0.53125 0 L 0.53125 -5.09375 L 3.828125 -5.09375 L 3.828125 -4.71875 L 0.9375 -4.71875 L 0.9375 -2.765625 L 3.25 -2.765625 L 3.25 -2.390625 L 0.9375 -2.390625 L 0.9375 -0.359375 L 3.921875 -0.359375 L 3.921875 0 Z M 0.53125 0 "/></g></g><g style="fill:#241b19;fill-opacity:1;"><g transform="translate(76.613396, 87.45924)"><path style="stroke:none" d="M 4.203125 -5.09375 L 4.609375 -5.09375 L 4.609375 0 L 3.859375 0 L 0.921875 -4.90625 L 0.90625 -4.90625 L 0.90625 0 L 0.5 0 L 0.5 -5.09375 L 1.21875 -5.09375 L 4.1875 -0.1875 L 4.203125 -0.1875 Z M 4.203125 -5.09375 "/></g></g><g style="fill:#241b19;fill-opacity:1;"><g transform="translate(81.754379, 87.45924)"><path style="stroke:none" d="M 2.203125 -4.9375 L 2.203125 0 L 1.796875 0 L 1.796875 -4.9375 Z M 0.09375 -4.71875 L 0.09375 -5.09375 L 3.890625 -5.09375 L 3.890625 -4.71875 Z M 0.09375 -4.71875 "/></g></g><g style="fill:#241b19;fill-opacity:1;"><g transform="translate(85.747898, 87.45924)"><path style="stroke:none" d="M 2.40625 0.125 C 2.144531 0.125 1.890625 0.0859375 1.640625 0.015625 C 1.390625 -0.046875 1.160156 -0.144531 0.953125 -0.28125 C 0.753906 -0.414062 0.59375 -0.585938 0.46875 -0.796875 C 0.351562 -1.003906 0.289062 -1.253906 0.28125 -1.546875 L 0.703125 -1.546875 C 0.703125 -1.523438 0.707031 -1.46875 0.71875 -1.375 C 0.726562 -1.289062 0.757812 -1.1875 0.8125 -1.0625 C 0.863281 -0.9375 0.945312 -0.8125 1.0625 -0.6875 C 1.1875 -0.5625 1.359375 -0.457031 1.578125 -0.375 C 1.804688 -0.300781 2.09375 -0.265625 2.4375 -0.265625 C 2.75 -0.265625 3 -0.300781 3.1875 -0.375 C 3.375 -0.445312 3.515625 -0.539062 3.609375 -0.65625 C 3.710938 -0.769531 3.78125 -0.875 3.8125 -0.96875 C 3.84375 -1.070312 3.859375 -1.15625 3.859375 -1.21875 C 3.867188 -1.445312 3.8125 -1.628906 3.6875 -1.765625 C 3.570312 -1.910156 3.410156 -2.023438 3.203125 -2.109375 C 2.992188 -2.203125 2.769531 -2.273438 2.53125 -2.328125 C 2.289062 -2.390625 2.046875 -2.453125 1.796875 -2.515625 C 1.554688 -2.585938 1.332031 -2.675781 1.125 -2.78125 C 0.925781 -2.894531 0.765625 -3.039062 0.640625 -3.21875 C 0.523438 -3.394531 0.472656 -3.625 0.484375 -3.90625 C 0.492188 -4.175781 0.582031 -4.40625 0.75 -4.59375 C 0.925781 -4.78125 1.15625 -4.925781 1.4375 -5.03125 C 1.726562 -5.132812 2.046875 -5.1875 2.390625 -5.1875 C 2.734375 -5.1875 3.046875 -5.125 3.328125 -5 C 3.609375 -4.875 3.832031 -4.691406 4 -4.453125 C 4.164062 -4.210938 4.242188 -3.914062 4.234375 -3.5625 L 3.828125 -3.5625 C 3.835938 -3.8125 3.789062 -4.015625 3.6875 -4.171875 C 3.582031 -4.335938 3.453125 -4.460938 3.296875 -4.546875 C 3.140625 -4.640625 2.976562 -4.703125 2.8125 -4.734375 C 2.644531 -4.773438 2.492188 -4.796875 2.359375 -4.796875 C 1.941406 -4.796875 1.597656 -4.707031 1.328125 -4.53125 C 1.066406 -4.363281 0.925781 -4.144531 0.90625 -3.875 C 0.90625 -3.644531 0.960938 -3.460938 1.078125 -3.328125 C 1.203125 -3.191406 1.363281 -3.082031 1.5625 -3 C 1.769531 -2.914062 1.992188 -2.84375 2.234375 -2.78125 C 2.484375 -2.726562 2.726562 -2.664062 2.96875 -2.59375 C 3.21875 -2.53125 3.441406 -2.441406 3.640625 -2.328125 C 3.835938 -2.222656 3.992188 -2.078125 4.109375 -1.890625 C 4.234375 -1.710938 4.289062 -1.476562 4.28125 -1.1875 C 4.269531 -0.90625 4.179688 -0.664062 4.015625 -0.46875 C 3.847656 -0.28125 3.625 -0.132812 3.34375 -0.03125 C 3.070312 0.0703125 2.757812 0.125 2.40625 0.125 Z M 2.40625 0.125 "/></g></g><g clip-rule="nonzero" clip-path="url(#baea1c5e3a)"><path style=" stroke:none;fill-rule:nonzero;fill:#241b19;fill-opacity:1;" d="M 51.1875 40.480469 C 58.660156 43.039062 63.941406 47.910156 67.355469 53.636719 C 67.4375 53.777344 67.527344 53.917969 67.609375 54.058594 C 67.691406 54.203125 67.773438 54.347656 67.851562 54.492188 C 68.035156 54.8125 68.210938 55.132812 68.382812 55.457031 C 68.40625 55.496094 68.429688 55.539062 68.449219 55.582031 C 70.554688 59.558594 71.882812 63.535156 72.679688 66.554688 C 72.105469 42.761719 50.3125 29.476562 50.078125 29.335938 C 49.765625 29.152344 49.664062 28.75 49.847656 28.441406 C 50.035156 28.132812 50.433594 28.027344 50.746094 28.210938 C 51 28.363281 75.625 43.386719 73.898438 70.191406 C 74.585938 69.492188 75.5 68.484375 76.492188 67.132812 C 81.300781 60.558594 82.949219 52.511719 81.132812 44.472656 C 79.269531 36.210938 73.902344 29.15625 66.40625 25.117188 C 53.527344 18.183594 46.023438 12.632812 44.015625 8.570312 C 42.230469 13.902344 38.121094 28.867188 43.957031 39.578125 C 44.0625 39.578125 47.980469 39.382812 51.1875 40.480469 Z M 51.1875 40.480469 "/></g><g clip-rule="nonzero" clip-path="url(#1c7589db1a)"><path style=" stroke:none;fill-rule:nonzero;fill:#241b19;fill-opacity:1;" d="M 26.175781 54.347656 C 25.824219 54.351562 25.507812 54.089844 25.488281 53.730469 C 25.472656 53.367188 25.75 53.0625 26.109375 53.042969 C 26.394531 53.03125 53.746094 51.847656 72.097656 69.84375 C 71.035156 64.777344 67.429688 51.585938 57.710938 44.917969 C 51.859375 40.902344 44.699219 39.871094 36.433594 41.855469 C 20.238281 45.738281 12.542969 44.03125 9.601562 42.851562 C 22.191406 80.367188 64.449219 73.042969 71.839844 71.449219 C 53.914062 53.167969 26.457031 54.328125 26.175781 54.347656 Z M 26.175781 54.347656 "/></g></g></svg>