<svg xmlns="http://www.w3.org/2000/svg" xmlns:xlink="http://www.w3.org/1999/xlink" width="128" zoomAndPan="magnify" viewBox="0 0 96 95.999999" height="128" preserveAspectRatio="xMidYMid meet" version="1.2"><defs><clipPath id="f5bec5cdb1"><path d="M 77 4.328125 L 86.34375 4.328125 L 86.34375 80.828125 L 77 80.828125 Z M 77 4.328125 "/></clipPath><clipPath id="c384aac491"><path d="M 9.84375 4.328125 L 19 4.328125 L 19 80.828125 L 9.84375 80.828125 Z M 9.84375 4.328125 "/></clipPath></defs><g id="e815a35310"><rect x="0" width="96" y="0" height="95.999999" style="fill:#ffffff;fill-opacity:1;stroke:none;"/><rect x="0" width="96" y="0" height="95.999999" style="fill:#241b19;fill-opacity:1;stroke:none;"/><g style="fill:#ffffff;fill-opacity:1;"><g transform="translate(12.739975, 89.399997)"><path style="stroke:none" d="M 4.203125 -5.09375 L 4.609375 -5.09375 L 4.609375 0 L 3.859375 0 L 0.921875 -4.90625 L 0.90625 -4.90625 L 0.90625 0 L 0.5 0 L 0.5 -5.09375 L 1.21875 -5.09375 L 4.1875 -0.1875 L 4.203125 -0.1875 Z M 4.203125 -5.09375 "/></g></g><g style="fill:#ffffff;fill-opacity:1;"><g transform="translate(17.880958, 89.399997)"><path style="stroke:none" d="M 2.65625 0.125 C 1.851562 0.125 1.242188 -0.113281 0.828125 -0.59375 C 0.410156 -1.070312 0.203125 -1.71875 0.203125 -2.53125 C 0.203125 -3.070312 0.289062 -3.535156 0.46875 -3.921875 C 0.65625 -4.316406 0.929688 -4.625 1.296875 -4.84375 C 1.660156 -5.070312 2.113281 -5.1875 2.65625 -5.1875 C 3.445312 -5.1875 4.046875 -4.945312 4.453125 -4.46875 C 4.867188 -3.988281 5.078125 -3.34375 5.078125 -2.53125 C 5.078125 -2.007812 4.984375 -1.546875 4.796875 -1.140625 C 4.617188 -0.742188 4.347656 -0.429688 3.984375 -0.203125 C 3.628906 0.015625 3.1875 0.125 2.65625 0.125 Z M 2.65625 -0.265625 C 3.101562 -0.265625 3.472656 -0.359375 3.765625 -0.546875 C 4.066406 -0.734375 4.296875 -1 4.453125 -1.34375 C 4.609375 -1.6875 4.6875 -2.082031 4.6875 -2.53125 C 4.6875 -2.988281 4.613281 -3.382812 4.46875 -3.71875 C 4.320312 -4.0625 4.09375 -4.328125 3.78125 -4.515625 C 3.476562 -4.703125 3.101562 -4.796875 2.65625 -4.796875 C 1.976562 -4.796875 1.46875 -4.59375 1.125 -4.1875 C 0.78125 -3.789062 0.609375 -3.238281 0.609375 -2.53125 C 0.609375 -2.082031 0.679688 -1.6875 0.828125 -1.34375 C 0.972656 -1.007812 1.195312 -0.742188 1.5 -0.546875 C 1.8125 -0.359375 2.195312 -0.265625 2.65625 -0.265625 Z M 2.65625 -0.265625 "/></g></g><g style="fill:#ffffff;fill-opacity:1;"><g transform="translate(23.311065, 89.399997)"><path style="stroke:none" d="M 4.203125 -5.09375 L 4.609375 -5.09375 L 4.609375 0 L 3.859375 0 L 0.921875 -4.90625 L 0.90625 -4.90625 L 0.90625 0 L 0.5 0 L 0.5 -5.09375 L 1.21875 -5.09375 L 4.1875 -0.1875 L 4.203125 -0.1875 Z M 4.203125 -5.09375 "/></g></g><g style="fill:#ffffff;fill-opacity:1;"><g transform="translate(28.452048, 89.399997)"><path style="stroke:none" d=""/></g></g><g style="fill:#ffffff;fill-opacity:1;"><g transform="translate(30.674685, 89.399997)"><path style="stroke:none" d="M 2.703125 0.09375 C 2.234375 0.09375 1.8125 -0.00390625 1.4375 -0.203125 C 1.070312 -0.398438 0.78125 -0.691406 0.5625 -1.078125 C 0.351562 -1.472656 0.25 -1.960938 0.25 -2.546875 C 0.25 -3.128906 0.351562 -3.613281 0.5625 -4 C 0.769531 -4.394531 1.0625 -4.691406 1.4375 -4.890625 C 1.820312 -5.085938 2.253906 -5.1875 2.734375 -5.1875 C 3.128906 -5.1875 3.476562 -5.113281 3.78125 -4.96875 C 4.09375 -4.820312 4.351562 -4.609375 4.5625 -4.328125 C 4.769531 -4.054688 4.910156 -3.722656 4.984375 -3.328125 L 4.5625 -3.328125 C 4.5 -3.648438 4.378906 -3.921875 4.203125 -4.140625 C 4.035156 -4.359375 3.828125 -4.519531 3.578125 -4.625 C 3.328125 -4.738281 3.046875 -4.796875 2.734375 -4.796875 C 2.085938 -4.796875 1.578125 -4.601562 1.203125 -4.21875 C 0.835938 -3.832031 0.65625 -3.28125 0.65625 -2.5625 C 0.65625 -1.8125 0.835938 -1.242188 1.203125 -0.859375 C 1.566406 -0.484375 2.066406 -0.296875 2.703125 -0.296875 C 3.046875 -0.296875 3.347656 -0.351562 3.609375 -0.46875 C 3.867188 -0.582031 4.082031 -0.742188 4.25 -0.953125 C 4.414062 -1.171875 4.53125 -1.4375 4.59375 -1.75 L 5.03125 -1.75 C 4.957031 -1.363281 4.816406 -1.03125 4.609375 -0.75 C 4.410156 -0.476562 4.148438 -0.269531 3.828125 -0.125 C 3.503906 0.0195312 3.128906 0.09375 2.703125 0.09375 Z M 2.703125 0.09375 "/></g></g><g style="fill:#ffffff;fill-opacity:1;"><g transform="translate(36.032511, 89.399997)"><path style="stroke:none" d="M 0.1875 0 L 2.046875 -5.09375 L 2.734375 -5.09375 L 4.625 0 L 4.1875 0 L 2.390625 -4.90625 L 0.59375 0 Z M 1.09375 -1.671875 L 1.171875 -2.03125 L 3.625 -2.03125 L 3.6875 -1.671875 Z M 1.09375 -1.671875 "/></g></g><g style="fill:#ffffff;fill-opacity:1;"><g transform="translate(40.81209, 89.399997)"><path style="stroke:none" d="M 0.59375 0 L 0.59375 -5.09375 L 2.171875 -5.09375 C 2.597656 -5.09375 2.957031 -5.050781 3.25 -4.96875 C 3.550781 -4.882812 3.773438 -4.738281 3.921875 -4.53125 C 4.078125 -4.320312 4.15625 -4.03125 4.15625 -3.65625 C 4.15625 -3.425781 4.113281 -3.210938 4.03125 -3.015625 C 3.945312 -2.816406 3.816406 -2.65625 3.640625 -2.53125 C 3.460938 -2.414062 3.234375 -2.359375 2.953125 -2.359375 C 3.179688 -2.359375 3.363281 -2.3125 3.5 -2.21875 C 3.632812 -2.132812 3.726562 -2.019531 3.78125 -1.875 C 3.84375 -1.738281 3.878906 -1.585938 3.890625 -1.421875 C 3.910156 -1.265625 3.921875 -1.109375 3.921875 -0.953125 C 3.921875 -0.796875 3.925781 -0.65625 3.9375 -0.53125 C 3.957031 -0.414062 4 -0.332031 4.0625 -0.28125 C 4.132812 -0.226562 4.242188 -0.226562 4.390625 -0.28125 L 4.390625 0.015625 C 4.359375 0.0351562 4.296875 0.0546875 4.203125 0.078125 C 4.117188 0.0976562 4.023438 0.09375 3.921875 0.0625 C 3.816406 0.03125 3.726562 -0.0351562 3.65625 -0.140625 C 3.59375 -0.253906 3.5625 -0.421875 3.5625 -0.640625 C 3.5625 -0.992188 3.546875 -1.273438 3.515625 -1.484375 C 3.484375 -1.691406 3.425781 -1.847656 3.34375 -1.953125 C 3.257812 -2.066406 3.125 -2.144531 2.9375 -2.1875 C 2.75 -2.226562 2.5 -2.25 2.1875 -2.25 C 1.875 -2.25 1.476562 -2.25 1 -2.25 L 1 0 Z M 1 -2.578125 L 2.328125 -2.578125 C 2.660156 -2.578125 2.929688 -2.609375 3.140625 -2.671875 C 3.359375 -2.734375 3.519531 -2.84375 3.625 -3 C 3.738281 -3.15625 3.796875 -3.367188 3.796875 -3.640625 C 3.796875 -3.960938 3.726562 -4.203125 3.59375 -4.359375 C 3.457031 -4.515625 3.265625 -4.613281 3.015625 -4.65625 C 2.773438 -4.707031 2.472656 -4.734375 2.109375 -4.734375 L 1 -4.734375 Z M 1 -2.578125 "/></g></g><g style="fill:#ffffff;fill-opacity:1;"><g transform="translate(45.510348, 89.399997)"><path style="stroke:none" d="M 2.703125 0.09375 C 2.234375 0.09375 1.8125 -0.00390625 1.4375 -0.203125 C 1.070312 -0.398438 0.78125 -0.691406 0.5625 -1.078125 C 0.351562 -1.472656 0.25 -1.960938 0.25 -2.546875 C 0.25 -3.128906 0.351562 -3.613281 0.5625 -4 C 0.769531 -4.394531 1.0625 -4.691406 1.4375 -4.890625 C 1.820312 -5.085938 2.253906 -5.1875 2.734375 -5.1875 C 3.128906 -5.1875 3.476562 -5.113281 3.78125 -4.96875 C 4.09375 -4.820312 4.351562 -4.609375 4.5625 -4.328125 C 4.769531 -4.054688 4.910156 -3.722656 4.984375 -3.328125 L 4.5625 -3.328125 C 4.5 -3.648438 4.378906 -3.921875 4.203125 -4.140625 C 4.035156 -4.359375 3.828125 -4.519531 3.578125 -4.625 C 3.328125 -4.738281 3.046875 -4.796875 2.734375 -4.796875 C 2.085938 -4.796875 1.578125 -4.601562 1.203125 -4.21875 C 0.835938 -3.832031 0.65625 -3.28125 0.65625 -2.5625 C 0.65625 -1.8125 0.835938 -1.242188 1.203125 -0.859375 C 1.566406 -0.484375 2.066406 -0.296875 2.703125 -0.296875 C 3.046875 -0.296875 3.347656 -0.351562 3.609375 -0.46875 C 3.867188 -0.582031 4.082031 -0.742188 4.25 -0.953125 C 4.414062 -1.171875 4.53125 -1.4375 4.59375 -1.75 L 5.03125 -1.75 C 4.957031 -1.363281 4.816406 -1.03125 4.609375 -0.75 C 4.410156 -0.476562 4.148438 -0.269531 3.828125 -0.125 C 3.503906 0.0195312 3.128906 0.09375 2.703125 0.09375 Z M 2.703125 0.09375 "/></g></g><g style="fill:#ffffff;fill-opacity:1;"><g transform="translate(50.868173, 89.399997)"><path style="stroke:none" d="M 1.21875 -0.15625 L 1.21875 -4.9375 L 1.625 -4.9375 L 1.625 -0.15625 Z M 0.5 0 L 0.5 -0.359375 L 2.328125 -0.359375 L 2.328125 0 Z M 0.5 -4.71875 L 0.5 -5.09375 L 2.328125 -5.09375 L 2.328125 -4.71875 Z M 0.5 -4.71875 "/></g></g><g style="fill:#ffffff;fill-opacity:1;"><g transform="translate(53.78652, 89.399997)"><path style="stroke:none" d="M 4.203125 -5.09375 L 4.609375 -5.09375 L 4.609375 0 L 3.859375 0 L 0.921875 -4.90625 L 0.90625 -4.90625 L 0.90625 0 L 0.5 0 L 0.5 -5.09375 L 1.21875 -5.09375 L 4.1875 -0.1875 L 4.203125 -0.1875 Z M 4.203125 -5.09375 "/></g></g><g style="fill:#ffffff;fill-opacity:1;"><g transform="translate(58.927503, 89.399997)"><path style="stroke:none" d="M 2.65625 0.125 C 1.851562 0.125 1.242188 -0.113281 0.828125 -0.59375 C 0.410156 -1.070312 0.203125 -1.71875 0.203125 -2.53125 C 0.203125 -3.070312 0.289062 -3.535156 0.46875 -3.921875 C 0.65625 -4.316406 0.929688 -4.625 1.296875 -4.84375 C 1.660156 -5.070312 2.113281 -5.1875 2.65625 -5.1875 C 3.445312 -5.1875 4.046875 -4.945312 4.453125 -4.46875 C 4.867188 -3.988281 5.078125 -3.34375 5.078125 -2.53125 C 5.078125 -2.007812 4.984375 -1.546875 4.796875 -1.140625 C 4.617188 -0.742188 4.347656 -0.429688 3.984375 -0.203125 C 3.628906 0.015625 3.1875 0.125 2.65625 0.125 Z M 2.65625 -0.265625 C 3.101562 -0.265625 3.472656 -0.359375 3.765625 -0.546875 C 4.066406 -0.734375 4.296875 -1 4.453125 -1.34375 C 4.609375 -1.6875 4.6875 -2.082031 4.6875 -2.53125 C 4.6875 -2.988281 4.613281 -3.382812 4.46875 -3.71875 C 4.320312 -4.0625 4.09375 -4.328125 3.78125 -4.515625 C 3.476562 -4.703125 3.101562 -4.796875 2.65625 -4.796875 C 1.976562 -4.796875 1.46875 -4.59375 1.125 -4.1875 C 0.78125 -3.789062 0.609375 -3.238281 0.609375 -2.53125 C 0.609375 -2.082031 0.679688 -1.6875 0.828125 -1.34375 C 0.972656 -1.007812 1.195312 -0.742188 1.5 -0.546875 C 1.8125 -0.359375 2.195312 -0.265625 2.65625 -0.265625 Z M 2.65625 -0.265625 "/></g></g><g style="fill:#ffffff;fill-opacity:1;"><g transform="translate(64.35761, 89.399997)"><path style="stroke:none" d="M 2.625 0.125 C 2.144531 0.125 1.722656 0.0195312 1.359375 -0.1875 C 1.003906 -0.394531 0.726562 -0.695312 0.53125 -1.09375 C 0.34375 -1.488281 0.25 -1.96875 0.25 -2.53125 C 0.25 -3.082031 0.347656 -3.554688 0.546875 -3.953125 C 0.742188 -4.359375 1.03125 -4.664062 1.40625 -4.875 C 1.78125 -5.082031 2.21875 -5.1875 2.71875 -5.1875 C 3.332031 -5.1875 3.835938 -5.035156 4.234375 -4.734375 C 4.628906 -4.441406 4.875 -4.003906 4.96875 -3.421875 L 4.578125 -3.40625 C 4.515625 -3.71875 4.394531 -3.976562 4.21875 -4.1875 C 4.050781 -4.394531 3.84375 -4.546875 3.59375 -4.640625 C 3.34375 -4.742188 3.050781 -4.796875 2.71875 -4.796875 C 2.039062 -4.796875 1.523438 -4.59375 1.171875 -4.1875 C 0.816406 -3.789062 0.640625 -3.242188 0.640625 -2.546875 C 0.640625 -1.828125 0.820312 -1.265625 1.1875 -0.859375 C 1.550781 -0.460938 2.054688 -0.265625 2.703125 -0.265625 C 3.054688 -0.265625 3.367188 -0.332031 3.640625 -0.46875 C 3.921875 -0.601562 4.144531 -0.796875 4.3125 -1.046875 C 4.476562 -1.304688 4.578125 -1.617188 4.609375 -1.984375 L 3.046875 -1.984375 L 3.046875 -2.328125 L 5.078125 -2.328125 L 5.078125 0 L 4.765625 0 L 4.671875 -1.234375 L 4.65625 -1.234375 C 4.625 -1.109375 4.5625 -0.96875 4.46875 -0.8125 C 4.375 -0.65625 4.242188 -0.503906 4.078125 -0.359375 C 3.921875 -0.222656 3.722656 -0.109375 3.484375 -0.015625 C 3.242188 0.078125 2.957031 0.125 2.625 0.125 Z M 2.625 0.125 "/></g></g><g style="fill:#ffffff;fill-opacity:1;"><g transform="translate(69.805787, 89.399997)"><path style="stroke:none" d="M 0.53125 0 L 0.53125 -5.09375 L 3.828125 -5.09375 L 3.828125 -4.71875 L 0.9375 -4.71875 L 0.9375 -2.765625 L 3.25 -2.765625 L 3.25 -2.390625 L 0.9375 -2.390625 L 0.9375 -0.359375 L 3.921875 -0.359375 L 3.921875 0 Z M 0.53125 0 "/></g></g><g style="fill:#ffffff;fill-opacity:1;"><g transform="translate(74.034218, 89.399997)"><path style="stroke:none" d="M 4.203125 -5.09375 L 4.609375 -5.09375 L 4.609375 0 L 3.859375 0 L 0.921875 -4.90625 L 0.90625 -4.90625 L 0.90625 0 L 0.5 0 L 0.5 -5.09375 L 1.21875 -5.09375 L 4.1875 -0.1875 L 4.203125 -0.1875 Z M 4.203125 -5.09375 "/></g></g><g style="fill:#ffffff;fill-opacity:1;"><g transform="translate(79.175202, 89.399997)"><path style="stroke:none" d="M 1.21875 -0.15625 L 1.21875 -4.9375 L 1.625 -4.9375 L 1.625 -0.15625 Z M 0.5 0 L 0.5 -0.359375 L 2.328125 -0.359375 L 2.328125 0 Z M 0.5 -4.71875 L 0.5 -5.09375 L 2.328125 -5.09375 L 2.328125 -4.71875 Z M 0.5 -4.71875 "/></g></g><g style="fill:#ffffff;fill-opacity:1;"><g transform="translate(82.093548, 89.399997)"><path style="stroke:none" d="M 2.703125 0.09375 C 2.234375 0.09375 1.8125 -0.00390625 1.4375 -0.203125 C 1.070312 -0.398438 0.78125 -0.691406 0.5625 -1.078125 C 0.351562 -1.472656 0.25 -1.960938 0.25 -2.546875 C 0.25 -3.128906 0.351562 -3.613281 0.5625 -4 C 0.769531 -4.394531 1.0625 -4.691406 1.4375 -4.890625 C 1.820312 -5.085938 2.253906 -5.1875 2.734375 -5.1875 C 3.128906 -5.1875 3.476562 -5.113281 3.78125 -4.96875 C 4.09375 -4.820312 4.351562 -4.609375 4.5625 -4.328125 C 4.769531 -4.054688 4.910156 -3.722656 4.984375 -3.328125 L 4.5625 -3.328125 C 4.5 -3.648438 4.378906 -3.921875 4.203125 -4.140625 C 4.035156 -4.359375 3.828125 -4.519531 3.578125 -4.625 C 3.328125 -4.738281 3.046875 -4.796875 2.734375 -4.796875 C 2.085938 -4.796875 1.578125 -4.601562 1.203125 -4.21875 C 0.835938 -3.832031 0.65625 -3.28125 0.65625 -2.5625 C 0.65625 -1.8125 0.835938 -1.242188 1.203125 -0.859375 C 1.566406 -0.484375 2.066406 -0.296875 2.703125 -0.296875 C 3.046875 -0.296875 3.347656 -0.351562 3.609375 -0.46875 C 3.867188 -0.582031 4.082031 -0.742188 4.25 -0.953125 C 4.414062 -1.171875 4.53125 -1.4375 4.59375 -1.75 L 5.03125 -1.75 C 4.957031 -1.363281 4.816406 -1.03125 4.609375 -0.75 C 4.410156 -0.476562 4.148438 -0.269531 3.828125 -0.125 C 3.503906 0.0195312 3.128906 0.09375 2.703125 0.09375 Z M 2.703125 0.09375 "/></g></g><g clip-rule="nonzero" clip-path="url(#f5bec5cdb1)"><path style=" stroke:none;fill-rule:nonzero;fill:#ffffff;fill-opacity:1;" d="M 89.035156 1.125 C 100.027344 12.113281 106.082031 26.734375 106.082031 42.277344 C 106.082031 57.828125 100.027344 72.449219 89.035156 83.4375 C 86.203125 86.269531 83.082031 88.8125 79.757812 91 C 79.523438 91.15625 79.261719 91.226562 79 91.226562 C 78.546875 91.226562 78.109375 91.007812 77.839844 90.605469 C 77.421875 89.964844 77.597656 89.105469 78.238281 88.683594 C 81.402344 86.601562 84.378906 84.179688 87.078125 81.480469 C 97.546875 71.011719 103.3125 57.089844 103.3125 42.277344 C 103.3125 27.472656 97.546875 13.554688 87.078125 3.082031 C 84.371094 0.378906 81.394531 -2.046875 78.238281 -4.125 C 77.597656 -4.542969 77.421875 -5.402344 77.839844 -6.042969 C 78.261719 -6.683594 79.117188 -6.859375 79.757812 -6.441406 C 83.074219 -4.257812 86.199219 -1.714844 89.035156 1.125 Z M 89.035156 1.125 "/></g><path style=" stroke:none;fill-rule:nonzero;fill:#ffffff;fill-opacity:1;" d="M 47.875 5.082031 C 68.386719 5.082031 85.074219 21.769531 85.074219 42.28125 C 85.074219 62.796875 68.386719 79.480469 47.875 79.480469 C 27.359375 79.480469 10.671875 62.796875 10.671875 42.28125 C 10.671875 21.769531 27.359375 5.082031 47.875 5.082031 Z M 74.792969 41.605469 C 74.921875 41.128906 74.785156 40.617188 74.433594 40.265625 C 74.085938 39.917969 73.574219 39.78125 73.097656 39.910156 L 60.601562 43.257812 C 57.652344 44.050781 55.417969 46.285156 54.625 49.234375 C 54.171875 50.921875 54.246094 52.640625 54.792969 54.207031 C 54.675781 54.246094 54.558594 54.285156 54.441406 54.328125 C 52.207031 55.109375 50.140625 56.21875 48.300781 57.613281 L 48.300781 41.667969 C 50.929688 41.351562 53.230469 39.847656 54.582031 37.503906 C 56.113281 34.855469 56.113281 31.691406 54.582031 29.046875 L 48.117188 17.84375 C 47.871094 17.414062 47.414062 17.152344 46.917969 17.152344 C 46.421875 17.152344 45.964844 17.414062 45.714844 17.84375 L 39.25 29.046875 C 37.71875 31.691406 37.71875 34.855469 39.25 37.503906 C 40.601562 39.847656 42.902344 41.351562 45.53125 41.667969 L 45.53125 56.707031 C 44.207031 55.410156 42.667969 54.34375 40.980469 53.558594 C 41.507812 52.015625 41.570312 50.324219 41.125 48.667969 C 40.332031 45.714844 38.097656 43.476562 35.148438 42.6875 L 22.652344 39.339844 C 22.175781 39.210938 21.664062 39.347656 21.316406 39.699219 C 20.964844 40.046875 20.828125 40.558594 20.957031 41.039062 L 24.300781 53.53125 C 25.09375 56.484375 27.332031 58.71875 30.285156 59.507812 C 31.023438 59.707031 31.773438 59.804688 32.511719 59.804688 C 34.714844 59.804688 36.832031 58.9375 38.453125 57.320312 L 38.9375 56.835938 C 39.203125 56.570312 39.445312 56.292969 39.667969 56 C 41.859375 56.988281 43.757812 58.546875 45.152344 60.511719 C 43.847656 61.972656 42.722656 63.613281 41.820312 65.402344 C 41.476562 66.082031 41.75 66.917969 42.433594 67.261719 C 42.636719 67.363281 42.847656 67.410156 43.058594 67.410156 C 43.5625 67.410156 44.050781 67.132812 44.296875 66.648438 C 45.210938 64.828125 46.390625 63.1875 47.773438 61.765625 C 47.777344 61.761719 47.78125 61.757812 47.785156 61.757812 C 47.824219 61.726562 47.859375 61.691406 47.898438 61.652344 C 47.925781 61.628906 47.953125 61.597656 47.976562 61.566406 C 47.980469 61.5625 47.984375 61.558594 47.984375 61.554688 C 47.992188 61.550781 47.992188 61.546875 47.996094 61.542969 C 50.050781 59.496094 52.550781 57.925781 55.355469 56.945312 C 55.625 56.847656 55.894531 56.761719 56.164062 56.679688 C 56.363281 56.933594 56.582031 57.171875 56.8125 57.40625 L 57.296875 57.890625 C 58.914062 59.507812 61.035156 60.375 63.238281 60.375 C 63.976562 60.375 64.726562 60.277344 65.464844 60.078125 C 68.417969 59.289062 70.65625 57.050781 71.445312 54.097656 Z M 74.792969 41.605469 "/><path style=" stroke:none;fill-rule:nonzero;fill:#ffffff;fill-opacity:1;" d="M 71.496094 43.207031 L 68.769531 53.378906 C 68.238281 55.367188 66.734375 56.871094 64.746094 57.402344 C 62.800781 57.925781 60.785156 57.402344 59.335938 56.007812 C 60.167969 55.898438 61.011719 55.847656 61.855469 55.847656 C 62.621094 55.847656 63.242188 55.226562 63.242188 54.460938 C 63.242188 53.695312 62.621094 53.074219 61.855469 53.074219 C 60.378906 53.074219 58.917969 53.21875 57.488281 53.5 C 57.054688 52.390625 56.976562 51.160156 57.300781 49.953125 C 57.832031 47.96875 59.335938 46.464844 61.320312 45.933594 Z M 71.496094 43.207031 "/><path style=" stroke:none;fill-rule:nonzero;fill:#ffffff;fill-opacity:1;" d="M 52.183594 30.429688 C 53.210938 32.210938 53.210938 34.339844 52.183594 36.117188 C 51.15625 37.898438 49.316406 38.960938 47.257812 38.960938 L 46.574219 38.960938 C 44.519531 38.960938 42.675781 37.898438 41.648438 36.117188 C 40.621094 34.339844 40.621094 32.210938 41.648438 30.429688 L 46.917969 21.308594 Z M 52.183594 30.429688 "/><path style=" stroke:none;fill-rule:nonzero;fill:#ffffff;fill-opacity:1;" d="M 38.449219 49.386719 C 38.742188 50.476562 38.707031 51.589844 38.375 52.613281 C 36.996094 52.242188 35.570312 52.054688 34.128906 52.054688 C 33.363281 52.054688 32.742188 52.675781 32.742188 53.4375 C 32.742188 54.203125 33.363281 54.824219 34.128906 54.824219 C 35.023438 54.824219 35.90625 54.910156 36.773438 55.085938 L 36.492188 55.363281 C 35.039062 56.816406 32.984375 57.367188 31 56.832031 C 29.015625 56.300781 27.511719 54.800781 26.980469 52.8125 L 24.253906 42.636719 L 34.429688 45.363281 C 36.414062 45.894531 37.917969 47.398438 38.449219 49.386719 Z M 38.449219 49.386719 "/><g clip-rule="nonzero" clip-path="url(#c384aac491)"><path style=" stroke:none;fill-rule:nonzero;fill:#ffffff;fill-opacity:1;" d="M 17.90625 -6.042969 C 18.328125 -5.402344 18.152344 -4.542969 17.511719 -4.125 C 14.351562 -2.046875 11.378906 0.378906 8.671875 3.082031 C -1.796875 13.554688 -7.5625 27.472656 -7.5625 42.277344 C -7.5625 57.089844 -1.796875 71.011719 8.671875 81.480469 C 11.371094 84.179688 14.347656 86.601562 17.511719 88.683594 C 18.152344 89.105469 18.328125 89.964844 17.90625 90.605469 C 17.640625 91.007812 17.203125 91.226562 16.75 91.226562 C 16.488281 91.226562 16.226562 91.15625 15.992188 91 C 12.664062 88.8125 9.546875 86.269531 6.714844 83.4375 C -4.277344 72.449219 -10.332031 57.828125 -10.332031 42.277344 C -10.332031 26.734375 -4.277344 12.113281 6.714844 1.125 C 9.550781 -1.714844 12.671875 -4.257812 15.992188 -6.441406 C 16.628906 -6.859375 17.488281 -6.683594 17.90625 -6.042969 Z M 17.90625 -6.042969 "/></g></g></svg>