<svg xmlns="http://www.w3.org/2000/svg" xmlns:xlink="http://www.w3.org/1999/xlink" width="128" zoomAndPan="magnify" viewBox="0 0 96 95.999999" height="128" preserveAspectRatio="xMidYMid meet" version="1.2"><defs><clipPath id="72de4a382c"><path d="M 12.886719 5.082031 L 85.636719 5.082031 L 85.636719 77.832031 L 12.886719 77.832031 Z M 12.886719 5.082031 "/></clipPath></defs><g id="3ac47fa7be"><rect x="0" width="96" y="0" height="95.999999" style="fill:#ffffff;fill-opacity:1;stroke:none;"/><rect x="0" width="96" y="0" height="95.999999" style="fill:#000000;fill-opacity:1;stroke:none;"/><g clip-rule="nonzero" clip-path="url(#72de4a382c)"><path style=" stroke:none;fill-rule:nonzero;fill:#ffffff;fill-opacity:1;" d="M 49.117188 6.632812 C 29.996094 6.632812 14.4375 22.191406 14.4375 41.3125 C 14.4375 60.433594 29.996094 75.988281 49.117188 75.988281 C 68.238281 75.988281 83.792969 60.433594 83.792969 41.3125 C 83.792969 22.191406 68.238281 6.632812 49.117188 6.632812 Z M 49.117188 77.539062 C 44.226562 77.539062 39.480469 76.582031 35.015625 74.691406 C 30.699219 72.867188 26.824219 70.253906 23.5 66.929688 C 20.171875 63.601562 17.558594 59.726562 15.734375 55.414062 C 13.84375 50.945312 12.886719 46.203125 12.886719 41.3125 C 12.886719 36.421875 13.84375 31.675781 15.734375 27.207031 C 17.558594 22.894531 20.171875 19.019531 23.5 15.695312 C 26.824219 12.367188 30.699219 9.753906 35.015625 7.929688 C 39.480469 6.039062 44.226562 5.082031 49.117188 5.082031 C 54.007812 5.082031 58.75 6.039062 63.21875 7.929688 C 67.53125 9.753906 71.40625 12.367188 74.734375 15.695312 C 78.058594 19.019531 80.671875 22.894531 82.496094 27.207031 C 84.386719 31.675781 85.34375 36.421875 85.34375 41.3125 C 85.34375 46.203125 84.386719 50.945312 82.496094 55.414062 C 80.671875 59.726562 78.058594 63.601562 74.734375 66.929688 C 71.40625 70.253906 67.53125 72.867188 63.21875 74.691406 C 58.75 76.582031 54.007812 77.539062 49.117188 77.539062 "/></g><path style=" stroke:none;fill-rule:nonzero;fill:#ffffff;fill-opacity:1;" d="M 49.117188 11.289062 C 32.5625 11.289062 19.09375 24.757812 19.09375 41.3125 C 19.09375 57.863281 32.5625 71.332031 49.117188 71.332031 C 65.671875 71.332031 79.136719 57.863281 79.136719 41.3125 C 79.136719 24.757812 65.671875 11.289062 49.117188 11.289062 Z M 49.117188 72.882812 C 44.855469 72.882812 40.71875 72.050781 36.824219 70.402344 C 33.066406 68.8125 29.6875 66.535156 26.789062 63.636719 C 23.890625 60.738281 21.613281 57.359375 20.023438 53.601562 C 18.375 49.707031 17.542969 45.574219 17.542969 41.3125 C 17.542969 37.046875 18.375 32.914062 20.023438 29.019531 C 21.613281 25.261719 23.890625 21.882812 26.789062 18.984375 C 29.6875 16.085938 33.066406 13.808594 36.824219 12.21875 C 40.71875 10.570312 44.855469 9.738281 49.117188 9.738281 C 53.378906 9.738281 57.511719 10.570312 61.40625 12.21875 C 65.164062 13.808594 68.542969 16.085938 71.441406 18.984375 C 74.34375 21.882812 76.617188 25.261719 78.207031 29.019531 C 79.855469 32.914062 80.691406 37.046875 80.691406 41.3125 C 80.691406 45.574219 79.855469 49.707031 78.207031 53.601562 C 76.617188 57.359375 74.34375 60.738281 71.441406 63.636719 C 68.542969 66.535156 65.164062 68.8125 61.40625 70.402344 C 57.511719 72.050781 53.378906 72.882812 49.117188 72.882812 "/><path style=" stroke:none;fill-rule:nonzero;fill:#ffffff;fill-opacity:1;" d="M 70.894531 63.863281 C 70.695312 63.863281 70.496094 63.789062 70.34375 63.636719 L 26.789062 20.082031 C 26.488281 19.777344 26.488281 19.289062 26.789062 18.984375 C 27.09375 18.683594 27.582031 18.683594 27.886719 18.984375 L 71.441406 62.539062 C 71.746094 62.84375 71.746094 63.335938 71.441406 63.636719 C 71.289062 63.789062 71.09375 63.863281 70.894531 63.863281 "/><path style=" stroke:none;fill-rule:nonzero;fill:#ffffff;fill-opacity:1;" d="M 44.445312 49.246094 L 55.699219 49.246094 L 61.324219 39.5 L 55.699219 29.757812 L 44.445312 29.757812 L 38.820312 39.5 Z M 56.144531 50.796875 L 44 50.796875 C 43.722656 50.796875 43.464844 50.648438 43.328125 50.410156 L 37.253906 39.890625 C 37.113281 39.648438 37.113281 39.355469 37.253906 39.113281 L 43.328125 28.59375 C 43.464844 28.351562 43.722656 28.203125 44 28.203125 L 56.144531 28.203125 C 56.421875 28.203125 56.679688 28.351562 56.816406 28.59375 L 62.890625 39.113281 C 63.03125 39.355469 63.03125 39.648438 62.890625 39.890625 L 56.816406 50.410156 C 56.679688 50.648438 56.421875 50.796875 56.144531 50.796875 "/><path style=" stroke:none;fill-rule:nonzero;fill:#ffffff;fill-opacity:1;" d="M 43.3125 36.375 C 43.179688 36.375 43.046875 36.339844 42.925781 36.269531 C 42.554688 36.054688 42.425781 35.582031 42.640625 35.210938 L 44.894531 31.308594 C 45.109375 30.9375 45.582031 30.808594 45.953125 31.023438 C 46.324219 31.238281 46.453125 31.714844 46.238281 32.082031 L 43.984375 35.988281 C 43.839844 36.234375 43.582031 36.375 43.3125 36.375 "/><path style=" stroke:none;fill-rule:nonzero;fill:#ffffff;fill-opacity:1;" d="M 41.058594 40.277344 C 40.925781 40.277344 40.792969 40.242188 40.671875 40.171875 C 40.300781 39.957031 40.175781 39.484375 40.386719 39.113281 L 41.195312 37.714844 C 41.410156 37.34375 41.882812 37.214844 42.253906 37.429688 C 42.625 37.644531 42.753906 38.117188 42.539062 38.488281 L 41.730469 39.890625 C 41.589844 40.136719 41.328125 40.277344 41.058594 40.277344 "/><path style=" stroke:none;fill-rule:nonzero;fill:#ffffff;fill-opacity:1;" d="M 42.625 66.34375 C 42.367188 66.34375 42.117188 66.214844 41.96875 65.984375 L 37.988281 59.714844 C 37.832031 59.46875 37.828125 59.160156 37.972656 58.910156 L 43.320312 49.648438 C 43.449219 49.410156 43.707031 49.246094 44 49.246094 C 44.425781 49.246094 44.773438 49.59375 44.773438 50.019531 C 44.773438 50.15625 44.738281 50.292969 44.671875 50.410156 L 39.550781 59.277344 L 43.28125 65.152344 C 43.507812 65.511719 43.402344 65.992188 43.039062 66.222656 C 42.910156 66.304688 42.769531 66.34375 42.625 66.34375 "/><path style=" stroke:none;fill-rule:nonzero;fill:#ffffff;fill-opacity:1;" d="M 56.144531 29.757812 C 56.011719 29.757812 55.878906 29.722656 55.757812 29.652344 C 55.386719 29.4375 55.261719 28.964844 55.472656 28.59375 L 58.015625 24.195312 C 58.226562 23.824219 58.703125 23.695312 59.074219 23.910156 C 59.445312 24.125 59.570312 24.597656 59.359375 24.96875 L 56.816406 29.367188 C 56.675781 29.617188 56.414062 29.757812 56.144531 29.757812 "/><path style=" stroke:none;fill-rule:nonzero;fill:#ffffff;fill-opacity:1;" d="M 63.054688 25.359375 L 58.6875 25.359375 C 58.328125 25.359375 58.015625 25.109375 57.933594 24.761719 L 56.132812 17.234375 C 56.035156 16.816406 56.289062 16.398438 56.707031 16.300781 C 57.125 16.199219 57.542969 16.457031 57.640625 16.875 L 59.296875 23.804688 L 63.054688 23.804688 C 63.484375 23.804688 63.832031 24.152344 63.832031 24.582031 C 63.832031 25.011719 63.484375 25.359375 63.054688 25.359375 "/><path style=" stroke:none;fill-rule:nonzero;fill:#ffffff;fill-opacity:1;" d="M 40.808594 56.328125 C 40.773438 56.328125 40.738281 56.324219 40.707031 56.320312 L 35.078125 55.578125 C 34.652344 55.523438 34.351562 55.132812 34.410156 54.707031 C 34.464844 54.285156 34.855469 53.984375 35.277344 54.039062 L 40.90625 54.78125 C 41.332031 54.835938 41.632812 55.226562 41.574219 55.652344 C 41.523438 56.042969 41.191406 56.328125 40.808594 56.328125 "/><g style="fill:#ffffff;fill-opacity:1;"><g transform="translate(20.919662, 90.799999)"><path style="stroke:none" d="M 1.125 0 L 0.671875 0 L 0.671875 -5.65625 L 1.125 -5.65625 Z M 1.046875 -5.65625 L 2.765625 -5.65625 C 3.378906 -5.65625 3.84375 -5.507812 4.15625 -5.21875 C 4.46875 -4.925781 4.625 -4.484375 4.625 -3.890625 C 4.625 -3.347656 4.460938 -2.925781 4.140625 -2.625 C 3.816406 -2.332031 3.359375 -2.1875 2.765625 -2.1875 L 1.03125 -2.1875 L 1.03125 -2.578125 L 2.71875 -2.578125 C 3.207031 -2.578125 3.578125 -2.6875 3.828125 -2.90625 C 4.078125 -3.125 4.203125 -3.457031 4.203125 -3.90625 C 4.203125 -4.363281 4.078125 -4.703125 3.828125 -4.921875 C 3.585938 -5.140625 3.21875 -5.25 2.71875 -5.25 L 1.046875 -5.25 Z M 1.046875 -5.65625 "/></g></g><g style="fill:#ffffff;fill-opacity:1;"><g transform="translate(25.744674, 90.799999)"><path style="stroke:none" d="M 0.203125 0 L 2.28125 -5.65625 L 3.03125 -5.65625 L 5.140625 0 L 4.65625 0 L 2.65625 -5.453125 L 0.65625 0 Z M 1.21875 -1.859375 L 1.3125 -2.265625 L 4.015625 -2.265625 L 4.09375 -1.859375 Z M 1.21875 -1.859375 "/></g></g><g style="fill:#ffffff;fill-opacity:1;"><g transform="translate(31.051219, 90.799999)"><path style="stroke:none" d="M 0.65625 0 L 0.65625 -5.65625 L 2.40625 -5.65625 C 2.882812 -5.65625 3.285156 -5.609375 3.609375 -5.515625 C 3.941406 -5.421875 4.191406 -5.257812 4.359375 -5.03125 C 4.535156 -4.800781 4.625 -4.476562 4.625 -4.0625 C 4.625 -3.8125 4.578125 -3.578125 4.484375 -3.359375 C 4.390625 -3.140625 4.242188 -2.957031 4.046875 -2.8125 C 3.847656 -2.675781 3.59375 -2.609375 3.28125 -2.609375 C 3.539062 -2.609375 3.742188 -2.5625 3.890625 -2.46875 C 4.035156 -2.375 4.140625 -2.25 4.203125 -2.09375 C 4.265625 -1.9375 4.300781 -1.765625 4.3125 -1.578125 C 4.332031 -1.398438 4.34375 -1.222656 4.34375 -1.046875 C 4.34375 -0.878906 4.351562 -0.726562 4.375 -0.59375 C 4.394531 -0.457031 4.441406 -0.363281 4.515625 -0.3125 C 4.585938 -0.257812 4.707031 -0.257812 4.875 -0.3125 L 4.875 0.015625 C 4.84375 0.046875 4.773438 0.0703125 4.671875 0.09375 C 4.578125 0.113281 4.472656 0.101562 4.359375 0.0625 C 4.242188 0.03125 4.144531 -0.0390625 4.0625 -0.15625 C 3.988281 -0.28125 3.953125 -0.46875 3.953125 -0.71875 C 3.953125 -1.101562 3.9375 -1.410156 3.90625 -1.640625 C 3.875 -1.878906 3.804688 -2.054688 3.703125 -2.171875 C 3.609375 -2.296875 3.457031 -2.378906 3.25 -2.421875 C 3.039062 -2.472656 2.765625 -2.5 2.421875 -2.5 C 2.078125 -2.5 1.640625 -2.492188 1.109375 -2.484375 L 1.109375 0 Z M 1.109375 -2.859375 L 2.59375 -2.859375 C 2.957031 -2.859375 3.257812 -2.894531 3.5 -2.96875 C 3.738281 -3.039062 3.914062 -3.160156 4.03125 -3.328125 C 4.144531 -3.503906 4.203125 -3.742188 4.203125 -4.046875 C 4.203125 -4.398438 4.128906 -4.660156 3.984375 -4.828125 C 3.835938 -5.003906 3.625 -5.117188 3.34375 -5.171875 C 3.070312 -5.222656 2.738281 -5.25 2.34375 -5.25 L 1.109375 -5.25 Z M 1.109375 -2.859375 "/></g></g><g style="fill:#ffffff;fill-opacity:1;"><g transform="translate(36.367903, 90.799999)"><path style="stroke:none" d="M 0.203125 0 L 2.28125 -5.65625 L 3.03125 -5.65625 L 5.140625 0 L 4.65625 0 L 2.65625 -5.453125 L 0.65625 0 Z M 1.21875 -1.859375 L 1.3125 -2.265625 L 4.015625 -2.265625 L 4.09375 -1.859375 Z M 1.21875 -1.859375 "/></g></g><g style="fill:#ffffff;fill-opacity:1;"><g transform="translate(41.674448, 90.799999)"><path style="stroke:none" d="M 0.625 0 L 0.625 -5.65625 L 2.578125 -5.65625 C 2.785156 -5.65625 2.988281 -5.644531 3.1875 -5.625 C 3.394531 -5.601562 3.585938 -5.5625 3.765625 -5.5 C 3.941406 -5.445312 4.097656 -5.363281 4.234375 -5.25 C 4.378906 -5.132812 4.488281 -4.988281 4.5625 -4.8125 C 4.644531 -4.632812 4.6875 -4.414062 4.6875 -4.15625 C 4.6875 -3.9375 4.644531 -3.734375 4.5625 -3.546875 C 4.476562 -3.367188 4.328125 -3.222656 4.109375 -3.109375 C 3.890625 -2.992188 3.582031 -2.929688 3.1875 -2.921875 L 3.1875 -2.890625 C 3.65625 -2.890625 4.015625 -2.820312 4.265625 -2.6875 C 4.515625 -2.550781 4.6875 -2.375 4.78125 -2.15625 C 4.875 -1.945312 4.921875 -1.722656 4.921875 -1.484375 C 4.921875 -1.210938 4.878906 -0.988281 4.796875 -0.8125 C 4.710938 -0.644531 4.59375 -0.503906 4.4375 -0.390625 C 4.289062 -0.285156 4.117188 -0.203125 3.921875 -0.140625 C 3.734375 -0.0859375 3.535156 -0.0507812 3.328125 -0.03125 C 3.117188 -0.0078125 2.910156 0 2.703125 0 Z M 1.078125 -0.390625 L 2.6875 -0.390625 C 3.007812 -0.390625 3.304688 -0.414062 3.578125 -0.46875 C 3.847656 -0.519531 4.054688 -0.625 4.203125 -0.78125 C 4.359375 -0.945312 4.4375 -1.1875 4.4375 -1.5 C 4.4375 -1.84375 4.351562 -2.097656 4.1875 -2.265625 C 4.019531 -2.441406 3.789062 -2.5625 3.5 -2.625 C 3.21875 -2.6875 2.898438 -2.71875 2.546875 -2.71875 L 1.078125 -2.71875 Z M 1.078125 -3.109375 L 2.53125 -3.109375 C 2.875 -3.109375 3.171875 -3.128906 3.421875 -3.171875 C 3.671875 -3.222656 3.863281 -3.316406 4 -3.453125 C 4.132812 -3.597656 4.203125 -3.820312 4.203125 -4.125 C 4.203125 -4.46875 4.125 -4.71875 3.96875 -4.875 C 3.820312 -5.03125 3.617188 -5.128906 3.359375 -5.171875 C 3.109375 -5.222656 2.835938 -5.25 2.546875 -5.25 L 1.078125 -5.25 Z M 1.078125 -3.109375 "/></g></g><g style="fill:#ffffff;fill-opacity:1;"><g transform="translate(46.94087, 90.799999)"><path style="stroke:none" d="M 0.578125 0 L 0.578125 -5.65625 L 4.265625 -5.65625 L 4.265625 -5.234375 L 1.046875 -5.234375 L 1.046875 -3.0625 L 3.609375 -3.0625 L 3.609375 -2.65625 L 1.046875 -2.65625 L 1.046875 -0.390625 L 4.34375 -0.390625 L 4.34375 0 Z M 0.578125 0 "/></g></g><g style="fill:#ffffff;fill-opacity:1;"><g transform="translate(51.635511, 90.799999)"><path style="stroke:none" d="M 4.671875 -5.65625 L 5.125 -5.65625 L 5.125 0 L 4.28125 0 L 1.03125 -5.453125 L 1 -5.453125 L 1 0 L 0.546875 0 L 0.546875 -5.65625 L 1.34375 -5.65625 L 4.65625 -0.21875 L 4.671875 -0.21875 Z M 4.671875 -5.65625 "/></g></g><g style="fill:#ffffff;fill-opacity:1;"><g transform="translate(57.343309, 90.799999)"><path style="stroke:none" d=""/></g></g><g style="fill:#ffffff;fill-opacity:1;"><g transform="translate(59.81101, 90.799999)"><path style="stroke:none" d="M 1.1875 0 L 0.71875 0 L 0.71875 -5.65625 L 4.578125 -5.65625 L 4.578125 -5.234375 L 1.1875 -5.234375 L 1.1875 -3.21875 L 3.890625 -3.21875 L 3.890625 -2.828125 L 1.1875 -2.828125 Z M 1.1875 0 "/></g></g><g style="fill:#ffffff;fill-opacity:1;"><g transform="translate(64.676225, 90.799999)"><path style="stroke:none" d="M 0.65625 0 L 0.65625 -5.65625 L 2.40625 -5.65625 C 2.882812 -5.65625 3.285156 -5.609375 3.609375 -5.515625 C 3.941406 -5.421875 4.191406 -5.257812 4.359375 -5.03125 C 4.535156 -4.800781 4.625 -4.476562 4.625 -4.0625 C 4.625 -3.8125 4.578125 -3.578125 4.484375 -3.359375 C 4.390625 -3.140625 4.242188 -2.957031 4.046875 -2.8125 C 3.847656 -2.675781 3.59375 -2.609375 3.28125 -2.609375 C 3.539062 -2.609375 3.742188 -2.5625 3.890625 -2.46875 C 4.035156 -2.375 4.140625 -2.25 4.203125 -2.09375 C 4.265625 -1.9375 4.300781 -1.765625 4.3125 -1.578125 C 4.332031 -1.398438 4.34375 -1.222656 4.34375 -1.046875 C 4.34375 -0.878906 4.351562 -0.726562 4.375 -0.59375 C 4.394531 -0.457031 4.441406 -0.363281 4.515625 -0.3125 C 4.585938 -0.257812 4.707031 -0.257812 4.875 -0.3125 L 4.875 0.015625 C 4.84375 0.046875 4.773438 0.0703125 4.671875 0.09375 C 4.578125 0.113281 4.472656 0.101562 4.359375 0.0625 C 4.242188 0.03125 4.144531 -0.0390625 4.0625 -0.15625 C 3.988281 -0.28125 3.953125 -0.46875 3.953125 -0.71875 C 3.953125 -1.101562 3.9375 -1.410156 3.90625 -1.640625 C 3.875 -1.878906 3.804688 -2.054688 3.703125 -2.171875 C 3.609375 -2.296875 3.457031 -2.378906 3.25 -2.421875 C 3.039062 -2.472656 2.765625 -2.5 2.421875 -2.5 C 2.078125 -2.5 1.640625 -2.492188 1.109375 -2.484375 L 1.109375 0 Z M 1.109375 -2.859375 L 2.59375 -2.859375 C 2.957031 -2.859375 3.257812 -2.894531 3.5 -2.96875 C 3.738281 -3.039062 3.914062 -3.160156 4.03125 -3.328125 C 4.144531 -3.503906 4.203125 -3.742188 4.203125 -4.046875 C 4.203125 -4.398438 4.128906 -4.660156 3.984375 -4.828125 C 3.835938 -5.003906 3.625 -5.117188 3.34375 -5.171875 C 3.070312 -5.222656 2.738281 -5.25 2.34375 -5.25 L 1.109375 -5.25 Z M 1.109375 -2.859375 "/></g></g><g style="fill:#ffffff;fill-opacity:1;"><g transform="translate(69.892487, 90.799999)"><path style="stroke:none" d="M 0.578125 0 L 0.578125 -5.65625 L 4.265625 -5.65625 L 4.265625 -5.234375 L 1.046875 -5.234375 L 1.046875 -3.0625 L 3.609375 -3.0625 L 3.609375 -2.65625 L 1.046875 -2.65625 L 1.046875 -0.390625 L 4.34375 -0.390625 L 4.34375 0 Z M 0.578125 0 "/></g></g><g style="fill:#ffffff;fill-opacity:1;"><g transform="translate(74.587128, 90.799999)"><path style="stroke:none" d="M 0.578125 0 L 0.578125 -5.65625 L 4.265625 -5.65625 L 4.265625 -5.234375 L 1.046875 -5.234375 L 1.046875 -3.0625 L 3.609375 -3.0625 L 3.609375 -2.65625 L 1.046875 -2.65625 L 1.046875 -0.390625 L 4.34375 -0.390625 L 4.34375 0 Z M 0.578125 0 "/></g></g></g></svg>