<?xml version="1.0" encoding="iso-8859-1"?>
<!-- Uploaded to: SVG Repo, www.svgrepo.com, Generator: SVG Repo Mixer Tools -->
<svg height="800px" width="800px" version="1.1" id="Layer_1" xmlns="http://www.w3.org/2000/svg" xmlns:xlink="http://www.w3.org/1999/xlink" 
	 viewBox="0 0 512 512" xml:space="preserve">
<g>
	<g>
		<g>
			<path style="fill:#231F20;" d="M410.486,170.717c47.067,0,85.359-38.291,85.359-85.359C495.845,38.291,457.555,0,410.486,0
				c-47.067,0-85.358,38.291-85.358,85.358C325.129,132.424,363.421,170.717,410.486,170.717z"/>
			<path style="fill:#231F20;" d="M410.486,341.283c-47.067,0-85.358,38.291-85.358,85.359c0,47.067,38.291,85.358,85.358,85.358
				s85.359-38.291,85.359-85.358S457.555,341.283,410.486,341.283z"/>
			<path style="fill:#231F20;" d="M304.387,157.22c-2.447-3.601-4.714-7.332-6.791-11.181c-3.85-7.134-12.952-9.51-19.886-5.309
				l-65.645,39.751c-68.99-76.089-195.91-27.024-195.91,75.52c0,102.448,126.875,151.658,195.91,75.52l65.645,39.751
				c6.934,4.199,16.035,1.825,19.886-5.309c2.077-3.849,4.346-7.581,6.791-11.181c4.57-6.726,2.483-15.921-4.473-20.133
				l-65.615-39.734c9.257-25.04,9.263-52.77,0-77.827l65.616-39.734C306.869,173.141,308.956,163.945,304.387,157.22z"/>
		</g>
	</g>
</g>
</svg>