<svg xmlns="http://www.w3.org/2000/svg" xmlns:xlink="http://www.w3.org/1999/xlink" width="128" zoomAndPan="magnify" viewBox="0 0 96 95.999999" height="128" preserveAspectRatio="xMidYMid meet" version="1.2"><defs><clipPath id="e96199cee4"><path d="M 14.046875 6.535156 L 86.046875 6.535156 L 86.046875 78.535156 L 14.046875 78.535156 Z M 14.046875 6.535156 "/></clipPath></defs><g id="0b90877f02"><rect x="0" width="96" y="0" height="95.999999" style="fill:#ffffff;fill-opacity:1;stroke:none;"/><rect x="0" width="96" y="0" height="95.999999" style="fill:#ffffff;fill-opacity:1;stroke:none;"/><path style=" stroke:none;fill-rule:nonzero;fill:#000000;fill-opacity:1;" d="M 55.097656 57.691406 C 56.484375 57.691406 57.625 58.828125 57.625 60.21875 C 57.625 61.609375 56.484375 62.746094 55.097656 62.746094 C 53.699219 62.746094 52.574219 61.609375 52.574219 60.21875 C 52.574219 58.828125 53.699219 57.691406 55.097656 57.691406 Z M 39.941406 61.480469 C 37.84375 61.480469 36.152344 59.789062 36.152344 57.691406 C 36.152344 55.59375 37.84375 53.902344 39.941406 53.902344 C 42.039062 53.902344 43.730469 55.59375 43.730469 57.691406 C 43.730469 59.789062 42.039062 61.480469 39.941406 61.480469 Z M 46.886719 55.167969 C 46.886719 54.113281 47.730469 53.269531 48.78125 53.269531 C 49.832031 53.269531 50.675781 54.113281 50.675781 55.167969 C 50.675781 56.21875 49.832031 57.0625 48.78125 57.0625 C 47.730469 57.0625 46.886719 56.21875 46.886719 55.167969 Z M 36.757812 67.796875 L 63.332031 67.796875 C 65.160156 67.796875 66.882812 67.1875 68.277344 66.125 L 49.738281 47.585938 L 38.558594 47.585938 L 43.292969 41.136719 L 41.480469 39.328125 L 30.023438 54.949219 C 28.285156 57.457031 28.089844 60.691406 29.511719 63.402344 C 30.917969 66.113281 33.695312 67.796875 36.757812 67.796875 "/><path style=" stroke:none;fill-rule:nonzero;fill:#000000;fill-opacity:1;" d="M 55.097656 34.542969 L 55.097656 25.375 L 58.152344 22.320312 C 58.992188 21.484375 59.242188 20.226562 58.789062 19.09375 C 58.324219 17.988281 57.253906 17.269531 56.0625 17.269531 L 44.03125 17.269531 C 42.835938 17.269531 41.765625 17.988281 41.292969 19.113281 C 40.847656 20.226562 41.105469 21.484375 41.9375 22.320312 L 44.992188 25.375 L 44.992188 32.125 L 47.519531 34.648438 L 47.519531 24.851562 C 47.519531 24.515625 47.386719 24.195312 47.148438 23.957031 L 43.726562 20.53125 C 43.613281 20.414062 43.574219 20.21875 43.632812 20.074219 C 43.699219 19.90625 43.863281 19.796875 44.03125 19.796875 L 56.0625 19.796875 C 56.230469 19.796875 56.390625 19.90625 56.449219 20.054688 C 56.519531 20.21875 56.480469 20.414062 56.367188 20.53125 L 52.941406 23.957031 C 52.707031 24.195312 52.574219 24.515625 52.574219 24.851562 L 52.574219 34.957031 C 52.574219 35.222656 52.65625 35.484375 52.820312 35.699219 L 61.53125 47.585938 L 60.457031 47.585938 L 64.503906 51.632812 L 69.640625 56.765625 L 71.441406 58.570312 C 71.273438 57.289062 70.824219 56.035156 70.050781 54.925781 L 55.097656 34.542969 "/><g clip-rule="nonzero" clip-path="url(#e96199cee4)"><path style=" stroke:none;fill-rule:nonzero;fill:#000000;fill-opacity:1;" d="M 71.367188 61.175781 L 28.667969 18.476562 C 34.578125 13.210938 42.140625 10.324219 50.046875 10.324219 C 67.804688 10.324219 82.257812 24.777344 82.257812 42.535156 C 82.257812 50.4375 79.371094 58.003906 74.105469 63.914062 Z M 42.613281 37.78125 L 71.425781 66.59375 C 65.519531 71.859375 57.949219 74.746094 50.046875 74.746094 C 32.289062 74.746094 17.835938 60.292969 17.835938 42.535156 C 17.835938 34.628906 20.722656 27.066406 25.988281 21.15625 Z M 50.046875 6.535156 C 30.195312 6.535156 14.046875 22.683594 14.046875 42.535156 C 14.046875 62.386719 30.195312 78.535156 50.046875 78.535156 C 69.894531 78.535156 86.046875 62.386719 86.046875 42.535156 C 86.046875 22.683594 69.894531 6.535156 50.046875 6.535156 "/></g><g style="fill:#000000;fill-opacity:1;"><g transform="translate(19.794662, 90.799999)"><path style="stroke:none" d="M 2.671875 0.125 C 2.378906 0.125 2.09375 0.0859375 1.8125 0.015625 C 1.539062 -0.046875 1.289062 -0.148438 1.0625 -0.296875 C 0.832031 -0.453125 0.648438 -0.644531 0.515625 -0.875 C 0.390625 -1.101562 0.320312 -1.382812 0.3125 -1.71875 L 0.78125 -1.71875 C 0.78125 -1.695312 0.785156 -1.632812 0.796875 -1.53125 C 0.804688 -1.4375 0.835938 -1.316406 0.890625 -1.171875 C 0.953125 -1.035156 1.050781 -0.898438 1.1875 -0.765625 C 1.320312 -0.628906 1.507812 -0.515625 1.75 -0.421875 C 2 -0.335938 2.316406 -0.296875 2.703125 -0.296875 C 3.046875 -0.296875 3.320312 -0.335938 3.53125 -0.421875 C 3.75 -0.503906 3.910156 -0.609375 4.015625 -0.734375 C 4.117188 -0.859375 4.191406 -0.972656 4.234375 -1.078125 C 4.273438 -1.191406 4.296875 -1.28125 4.296875 -1.34375 C 4.296875 -1.601562 4.226562 -1.8125 4.09375 -1.96875 C 3.957031 -2.125 3.773438 -2.25 3.546875 -2.34375 C 3.328125 -2.4375 3.082031 -2.515625 2.8125 -2.578125 C 2.539062 -2.648438 2.269531 -2.722656 2 -2.796875 C 1.726562 -2.878906 1.476562 -2.976562 1.25 -3.09375 C 1.03125 -3.21875 0.851562 -3.378906 0.71875 -3.578125 C 0.582031 -3.773438 0.523438 -4.03125 0.546875 -4.34375 C 0.554688 -4.632812 0.65625 -4.882812 0.84375 -5.09375 C 1.039062 -5.3125 1.296875 -5.472656 1.609375 -5.578125 C 1.929688 -5.691406 2.28125 -5.75 2.65625 -5.75 C 3.039062 -5.75 3.390625 -5.679688 3.703125 -5.546875 C 4.015625 -5.410156 4.257812 -5.207031 4.4375 -4.9375 C 4.625 -4.675781 4.710938 -4.347656 4.703125 -3.953125 L 4.25 -3.953125 C 4.257812 -4.234375 4.207031 -4.460938 4.09375 -4.640625 C 3.976562 -4.816406 3.832031 -4.957031 3.65625 -5.0625 C 3.488281 -5.164062 3.3125 -5.234375 3.125 -5.265625 C 2.9375 -5.304688 2.769531 -5.328125 2.625 -5.328125 C 2.15625 -5.328125 1.769531 -5.226562 1.46875 -5.03125 C 1.175781 -4.84375 1.023438 -4.601562 1.015625 -4.3125 C 1.003906 -4.050781 1.066406 -3.84375 1.203125 -3.6875 C 1.335938 -3.539062 1.519531 -3.421875 1.75 -3.328125 C 1.976562 -3.234375 2.226562 -3.15625 2.5 -3.09375 C 2.769531 -3.03125 3.035156 -2.957031 3.296875 -2.875 C 3.566406 -2.800781 3.8125 -2.703125 4.03125 -2.578125 C 4.257812 -2.460938 4.4375 -2.300781 4.5625 -2.09375 C 4.695312 -1.894531 4.765625 -1.632812 4.765625 -1.3125 C 4.742188 -1.007812 4.640625 -0.75 4.453125 -0.53125 C 4.265625 -0.320312 4.015625 -0.160156 3.703125 -0.046875 C 3.398438 0.0664062 3.054688 0.125 2.671875 0.125 Z M 2.671875 0.125 "/></g></g><g style="fill:#000000;fill-opacity:1;"><g transform="translate(24.920642, 90.799999)"><path style="stroke:none" d="M 1.359375 -0.1875 L 1.359375 -5.46875 L 1.8125 -5.46875 L 1.8125 -0.1875 Z M 0.5625 0 L 0.5625 -0.40625 L 2.59375 -0.40625 L 2.59375 0 Z M 0.5625 -5.25 L 0.5625 -5.65625 L 2.59375 -5.65625 L 2.59375 -5.25 Z M 0.5625 -5.25 "/></g></g><g style="fill:#000000;fill-opacity:1;"><g transform="translate(28.160751, 90.799999)"><path style="stroke:none" d="M 0.6875 -0.125 L 0.6875 -5.65625 L 1.140625 -5.65625 L 1.140625 -0.125 Z M 0.6875 0 L 0.6875 -0.40625 L 4.453125 -0.40625 L 4.453125 0 Z M 0.6875 0 "/></g></g><g style="fill:#000000;fill-opacity:1;"><g transform="translate(32.83533, 90.799999)"><path style="stroke:none" d="M 1.359375 -0.1875 L 1.359375 -5.46875 L 1.8125 -5.46875 L 1.8125 -0.1875 Z M 0.5625 0 L 0.5625 -0.40625 L 2.59375 -0.40625 L 2.59375 0 Z M 0.5625 -5.25 L 0.5625 -5.65625 L 2.59375 -5.65625 L 2.59375 -5.25 Z M 0.5625 -5.25 "/></g></g><g style="fill:#000000;fill-opacity:1;"><g transform="translate(36.075438, 90.799999)"><path style="stroke:none" d="M 3 0.09375 C 2.476562 0.09375 2.007812 -0.015625 1.59375 -0.234375 C 1.1875 -0.453125 0.863281 -0.773438 0.625 -1.203125 C 0.382812 -1.640625 0.265625 -2.179688 0.265625 -2.828125 C 0.265625 -3.472656 0.378906 -4.015625 0.609375 -4.453125 C 0.847656 -4.890625 1.175781 -5.210938 1.59375 -5.421875 C 2.019531 -5.640625 2.5 -5.75 3.03125 -5.75 C 3.476562 -5.75 3.867188 -5.671875 4.203125 -5.515625 C 4.546875 -5.359375 4.832031 -5.125 5.0625 -4.8125 C 5.300781 -4.507812 5.457031 -4.140625 5.53125 -3.703125 L 5.0625 -3.703125 C 5 -4.054688 4.867188 -4.351562 4.671875 -4.59375 C 4.484375 -4.84375 4.25 -5.023438 3.96875 -5.140625 C 3.695312 -5.265625 3.382812 -5.328125 3.03125 -5.328125 C 2.320312 -5.328125 1.757812 -5.113281 1.34375 -4.6875 C 0.9375 -4.257812 0.734375 -3.644531 0.734375 -2.84375 C 0.734375 -2.007812 0.9375 -1.378906 1.34375 -0.953125 C 1.75 -0.535156 2.300781 -0.328125 3 -0.328125 C 3.375 -0.328125 3.707031 -0.390625 4 -0.515625 C 4.300781 -0.640625 4.539062 -0.820312 4.71875 -1.0625 C 4.90625 -1.300781 5.03125 -1.597656 5.09375 -1.953125 L 5.59375 -1.953125 C 5.507812 -1.515625 5.351562 -1.140625 5.125 -0.828125 C 4.894531 -0.523438 4.597656 -0.296875 4.234375 -0.140625 C 3.878906 0.015625 3.46875 0.09375 3 0.09375 Z M 3 0.09375 "/></g></g><g style="fill:#000000;fill-opacity:1;"><g transform="translate(42.023985, 90.799999)"><path style="stroke:none" d="M 2.9375 0.140625 C 2.0625 0.140625 1.390625 -0.125 0.921875 -0.65625 C 0.460938 -1.1875 0.234375 -1.90625 0.234375 -2.8125 C 0.234375 -3.40625 0.332031 -3.921875 0.53125 -4.359375 C 0.726562 -4.804688 1.03125 -5.148438 1.4375 -5.390625 C 1.84375 -5.628906 2.34375 -5.75 2.9375 -5.75 C 3.820312 -5.75 4.492188 -5.484375 4.953125 -4.953125 C 5.410156 -4.421875 5.640625 -3.707031 5.640625 -2.8125 C 5.640625 -2.226562 5.535156 -1.710938 5.328125 -1.265625 C 5.128906 -0.828125 4.832031 -0.484375 4.4375 -0.234375 C 4.039062 0.015625 3.539062 0.140625 2.9375 0.140625 Z M 2.9375 -0.296875 C 3.445312 -0.296875 3.863281 -0.398438 4.1875 -0.609375 C 4.519531 -0.816406 4.769531 -1.109375 4.9375 -1.484375 C 5.113281 -1.867188 5.203125 -2.3125 5.203125 -2.8125 C 5.203125 -3.320312 5.117188 -3.765625 4.953125 -4.140625 C 4.796875 -4.515625 4.546875 -4.804688 4.203125 -5.015625 C 3.867188 -5.222656 3.445312 -5.328125 2.9375 -5.328125 C 2.195312 -5.328125 1.632812 -5.101562 1.25 -4.65625 C 0.875 -4.21875 0.6875 -3.601562 0.6875 -2.8125 C 0.6875 -2.3125 0.765625 -1.875 0.921875 -1.5 C 1.085938 -1.125 1.335938 -0.828125 1.671875 -0.609375 C 2.015625 -0.398438 2.4375 -0.296875 2.9375 -0.296875 Z M 2.9375 -0.296875 "/></g></g><g style="fill:#000000;fill-opacity:1;"><g transform="translate(48.05279, 90.799999)"><path style="stroke:none" d="M 4.671875 -5.65625 L 5.125 -5.65625 L 5.125 0 L 4.28125 0 L 1.03125 -5.453125 L 1 -5.453125 L 1 0 L 0.546875 0 L 0.546875 -5.65625 L 1.34375 -5.65625 L 4.65625 -0.21875 L 4.671875 -0.21875 Z M 4.671875 -5.65625 "/></g></g><g style="fill:#000000;fill-opacity:1;"><g transform="translate(53.760587, 90.799999)"><path style="stroke:none" d="M 0.578125 0 L 0.578125 -5.65625 L 4.265625 -5.65625 L 4.265625 -5.234375 L 1.046875 -5.234375 L 1.046875 -3.0625 L 3.609375 -3.0625 L 3.609375 -2.65625 L 1.046875 -2.65625 L 1.046875 -0.390625 L 4.34375 -0.390625 L 4.34375 0 Z M 0.578125 0 "/></g></g><g style="fill:#000000;fill-opacity:1;"><g transform="translate(58.455228, 90.799999)"><path style="stroke:none" d=""/></g></g><g style="fill:#000000;fill-opacity:1;"><g transform="translate(60.922929, 90.799999)"><path style="stroke:none" d="M 1.1875 0 L 0.71875 0 L 0.71875 -5.65625 L 4.578125 -5.65625 L 4.578125 -5.234375 L 1.1875 -5.234375 L 1.1875 -3.21875 L 3.890625 -3.21875 L 3.890625 -2.828125 L 1.1875 -2.828125 Z M 1.1875 0 "/></g></g><g style="fill:#000000;fill-opacity:1;"><g transform="translate(65.788144, 90.799999)"><path style="stroke:none" d="M 0.65625 0 L 0.65625 -5.65625 L 2.40625 -5.65625 C 2.882812 -5.65625 3.285156 -5.609375 3.609375 -5.515625 C 3.941406 -5.421875 4.191406 -5.257812 4.359375 -5.03125 C 4.535156 -4.800781 4.625 -4.476562 4.625 -4.0625 C 4.625 -3.8125 4.578125 -3.578125 4.484375 -3.359375 C 4.390625 -3.140625 4.242188 -2.957031 4.046875 -2.8125 C 3.847656 -2.675781 3.59375 -2.609375 3.28125 -2.609375 C 3.539062 -2.609375 3.742188 -2.5625 3.890625 -2.46875 C 4.035156 -2.375 4.140625 -2.25 4.203125 -2.09375 C 4.265625 -1.9375 4.300781 -1.765625 4.3125 -1.578125 C 4.332031 -1.398438 4.34375 -1.222656 4.34375 -1.046875 C 4.34375 -0.878906 4.351562 -0.726562 4.375 -0.59375 C 4.394531 -0.457031 4.441406 -0.363281 4.515625 -0.3125 C 4.585938 -0.257812 4.707031 -0.257812 4.875 -0.3125 L 4.875 0.015625 C 4.84375 0.046875 4.773438 0.0703125 4.671875 0.09375 C 4.578125 0.113281 4.472656 0.101562 4.359375 0.0625 C 4.242188 0.03125 4.144531 -0.0390625 4.0625 -0.15625 C 3.988281 -0.28125 3.953125 -0.46875 3.953125 -0.71875 C 3.953125 -1.101562 3.9375 -1.410156 3.90625 -1.640625 C 3.875 -1.878906 3.804688 -2.054688 3.703125 -2.171875 C 3.609375 -2.296875 3.457031 -2.378906 3.25 -2.421875 C 3.039062 -2.472656 2.765625 -2.5 2.421875 -2.5 C 2.078125 -2.5 1.640625 -2.492188 1.109375 -2.484375 L 1.109375 0 Z M 1.109375 -2.859375 L 2.59375 -2.859375 C 2.957031 -2.859375 3.257812 -2.894531 3.5 -2.96875 C 3.738281 -3.039062 3.914062 -3.160156 4.03125 -3.328125 C 4.144531 -3.503906 4.203125 -3.742188 4.203125 -4.046875 C 4.203125 -4.398438 4.128906 -4.660156 3.984375 -4.828125 C 3.835938 -5.003906 3.625 -5.117188 3.34375 -5.171875 C 3.070312 -5.222656 2.738281 -5.25 2.34375 -5.25 L 1.109375 -5.25 Z M 1.109375 -2.859375 "/></g></g><g style="fill:#000000;fill-opacity:1;"><g transform="translate(71.004407, 90.799999)"><path style="stroke:none" d="M 0.578125 0 L 0.578125 -5.65625 L 4.265625 -5.65625 L 4.265625 -5.234375 L 1.046875 -5.234375 L 1.046875 -3.0625 L 3.609375 -3.0625 L 3.609375 -2.65625 L 1.046875 -2.65625 L 1.046875 -0.390625 L 4.34375 -0.390625 L 4.34375 0 Z M 0.578125 0 "/></g></g><g style="fill:#000000;fill-opacity:1;"><g transform="translate(75.699048, 90.799999)"><path style="stroke:none" d="M 0.578125 0 L 0.578125 -5.65625 L 4.265625 -5.65625 L 4.265625 -5.234375 L 1.046875 -5.234375 L 1.046875 -3.0625 L 3.609375 -3.0625 L 3.609375 -2.65625 L 1.046875 -2.65625 L 1.046875 -0.390625 L 4.34375 -0.390625 L 4.34375 0 Z M 0.578125 0 "/></g></g></g></svg>